<?xml version="1.0" standalone="no"?>
<!DOCTYPE svg PUBLIC "-//W3C//DTD SVG 20010904//EN"
 "http://www.w3.org/TR/2001/REC-SVG-20010904/DTD/svg10.dtd">
<svg version="1.0" xmlns="http://www.w3.org/2000/svg"
 width="768.000000pt" height="768.000000pt" viewBox="0 0 768.000000 768.000000"
 preserveAspectRatio="xMidYMid meet">
<metadata>
Created by potrace 1.14, written by Peter Selinger 2001-2017
</metadata>
<g transform="translate(0.000000,768.000000) scale(0.100000,-0.100000)"
fill="#000000" stroke="none">
<path d="M5474 6553 c-16 -25 -49 -79 -74 -119 -50 -80 -122 -180 -405 -563
-104 -142 -235 -324 -290 -405 -55 -81 -160 -234 -233 -341 -134 -196 -524
-825 -608 -980 -25 -47 -58 -93 -72 -104 -44 -31 -122 -61 -161 -62 -32 -1
-31 -2 14 -9 146 -23 346 -76 361 -95 6 -8 22 -19 35 -24 19 -8 20 -10 6 -10
-11 -1 -30 8 -44 19 -14 11 -36 20 -49 20 -13 0 -24 4 -24 8 0 5 -14 9 -31 10
-18 0 -44 5 -58 11 -46 18 -253 51 -321 51 -46 0 -61 3 -50 10 21 13 -5 13
-28 0 -20 -12 -233 -39 -227 -30 3 4 33 10 67 14 84 9 132 17 138 23 3 3 -26
2 -65 -1 -38 -3 -243 -9 -455 -12 -370 -5 -563 1 -1018 30 l-183 12 -137 -64
c-158 -73 -198 -85 -342 -106 -114 -17 -391 -38 -412 -32 -7 2 -33 7 -58 10
-44 6 -45 6 -18 -9 30 -17 197 -58 298 -74 253 -40 811 -43 1647 -10 389 15
858 8 879 -14 2 -2 -102 -163 -232 -358 -131 -195 -258 -385 -284 -424 -26
-38 -66 -106 -90 -150 -52 -95 -179 -316 -190 -330 -19 -24 -324 -549 -410
-705 -35 -63 -103 -176 -152 -250 -49 -74 -74 -117 -56 -95 61 75 285 285 304
285 4 0 -28 -35 -71 -78 -162 -160 -367 -400 -407 -477 -17 -32 3 -8 99 120
54 72 161 192 268 300 98 99 178 183 177 187 -2 8 26 25 43 27 6 1 10 6 10 11
0 14 126 130 140 130 11 -1 -65 -70 -77 -70 -5 0 -8 -5 -8 -11 0 -6 17 3 38
21 20 17 69 55 109 85 39 30 75 61 79 67 5 7 -10 -2 -33 -19 -22 -18 -44 -33
-47 -33 -19 0 3 31 67 93 39 39 65 62 57 51 -8 -10 3 -3 23 16 21 19 35 40 32
48 -2 7 -1 11 3 8 12 -7 65 41 57 53 -3 6 0 9 8 5 8 -3 20 3 28 12 12 16 12
17 -3 11 -10 -3 -18 -3 -18 1 1 10 30 47 30 37 0 -4 11 5 25 21 14 16 25 34
25 41 0 6 7 19 16 27 8 9 13 16 9 16 -3 0 -1 9 5 20 7 12 16 18 23 13 7 -4 7
0 -2 10 -12 15 -11 17 3 17 9 0 20 10 25 23 10 26 -5 61 -21 50 -7 -3 -2 7 10
24 30 43 27 55 -5 18 -24 -28 -25 -28 -10 -3 22 36 67 80 67 65 0 -7 -9 -27
-20 -45 -22 -37 -25 -46 -9 -37 5 4 14 18 19 31 6 15 15 22 25 18 8 -3 15 -1
15 5 0 6 -4 11 -10 11 -16 0 -12 16 11 41 l20 24 -11 -23 c-6 -13 -10 -27 -8
-32 6 -17 69 23 85 54 9 17 24 38 34 47 10 9 16 19 12 23 -3 3 -1 6 5 6 6 0
14 10 18 23 4 12 21 42 38 67 17 25 30 48 29 51 -1 4 11 21 27 39 17 19 30 38
30 42 0 5 4 7 9 4 5 -3 11 1 15 9 3 8 1 17 -4 20 -5 3 -7 13 -4 23 5 16 5 16
-6 0 -16 -25 -43 -12 -29 14 8 14 8 23 0 31 -8 8 -11 8 -12 -1 -1 -7 -2 -16
-3 -22 0 -5 -5 -9 -11 -7 -5 1 -9 5 -8 10 2 4 -4 7 -12 7 -17 0 -20 -11 -5
-26 6 -6 5 -15 -1 -24 -9 -13 -10 -13 -6 1 3 9 1 21 -5 27 -8 8 -8 15 0 25 7
8 9 17 5 20 -3 4 -1 7 6 7 7 0 9 5 5 12 -4 7 -3 8 4 4 6 -4 9 -13 6 -20 -3 -8
-1 -17 4 -20 6 -3 13 1 16 10 5 14 9 14 23 3 15 -13 16 -11 10 12 -5 20 -1 33
17 52 17 18 26 22 30 14 3 -7 3 -2 0 11 -3 12 -2 22 3 22 11 0 47 60 40 67 -3
2 -10 -5 -17 -16 -11 -22 -30 -28 -30 -10 0 5 5 7 10 4 6 -3 10 -1 10 5 0 6 6
18 14 25 10 11 16 11 26 2 10 -10 12 -8 6 6 -4 14 -1 20 13 24 13 3 18 10 14
21 -4 10 -2 13 5 8 17 -10 53 30 46 51 -5 15 -4 16 5 3 10 -13 12 -13 21 0 8
12 10 11 10 -8 0 -13 -5 -32 -11 -43 -6 -11 -9 -25 -6 -32 5 -17 68 152 70
190 1 18 3 33 5 33 1 0 33 -64 71 -142 70 -144 221 -381 341 -537 36 -46 100
-129 142 -185 43 -55 83 -101 90 -101 7 -1 12 -6 11 -13 -2 -6 13 -33 33 -59
44 -58 50 -64 35 -36 -22 43 -10 34 35 -27 89 -121 549 -661 528 -620 -7 13
-6 13 12 0 29 -22 30 -24 12 -17 -24 9 -23 -6 2 -28 11 -10 20 -14 20 -10 0 4
8 1 18 -8 15 -13 21 -14 32 -4 12 10 12 9 1 -5 -7 -9 -10 -23 -6 -30 4 -7 -5
1 -20 17 -14 17 -23 23 -19 15 10 -18 136 -170 141 -170 3 0 -5 12 -16 26 -11
15 -18 31 -14 37 3 5 1 7 -5 3 -6 -3 -14 -1 -18 5 -3 6 -1 15 6 19 8 5 9 13 4
21 -6 11 -5 12 7 2 12 -10 15 -8 16 7 1 14 -4 18 -19 15 -14 -3 -18 0 -14 10
7 18 -13 75 -26 75 -5 0 -7 10 -4 23 3 12 3 16 0 9 -3 -6 -11 -9 -17 -5 -7 4
-8 0 -4 -11 4 -10 3 -15 -3 -11 -6 4 -10 12 -9 18 4 31 -2 58 -11 52 -6 -3 -7
1 -4 9 7 17 -19 49 -31 38 -4 -4 -5 2 -3 13 1 11 -2 19 -8 18 -12 -2 -11 29 2
62 7 18 6 19 -9 6 -10 -8 -20 -11 -24 -7 -3 3 -2 6 4 6 6 0 13 9 16 20 3 11 1
18 -4 14 -5 -3 -9 2 -9 11 0 10 -5 14 -12 9 -10 -5 -10 -4 -1 6 10 11 15 11
28 0 8 -7 15 -18 15 -26 0 -7 4 -15 9 -19 6 -3 6 7 1 27 -6 17 -15 35 -21 39
-11 7 -19 37 -23 86 0 11 -4 19 -7 17 -9 -5 -21 27 -14 34 3 3 5 -1 5 -8 0 -7
3 -10 6 -7 4 4 2 12 -4 19 -6 7 -20 38 -32 68 -23 57 -153 320 -188 380 -18
30 -57 104 -70 135 -3 6 6 1 19 -10 l24 -20 -19 23 c-11 12 -21 20 -24 17 -11
-11 -60 74 -77 133 -4 12 -10 20 -14 18 -4 -3 -20 16 -36 42 -16 26 -34 50
-40 54 -5 4 -6 8 -2 8 8 0 5 5 -31 62 -9 15 -53 85 -97 155 -168 269 -253 395
-259 384 -4 -6 -1 -14 8 -17 8 -3 17 -13 21 -22 4 -13 0 -11 -16 5 -12 12 -24
34 -25 50 -2 15 -8 29 -14 31 -5 2 -10 9 -10 16 0 7 -9 21 -20 31 -11 10 -17
22 -13 28 3 5 1 7 -5 3 -5 -3 -12 -2 -14 4 -2 7 -14 7 -37 0 -24 -7 -31 -6
-24 1 6 6 17 11 24 12 8 2 20 6 27 10 6 5 12 4 12 -1 0 -5 42 4 94 21 58 19
92 36 89 43 -2 6 6 14 19 18 34 9 45 7 28 -5 -31 -22 25 2 77 33 51 31 68 52
22 28 -16 -9 -51 -11 -118 -6 -52 4 -97 8 -99 11 -3 2 6 13 19 24 21 18 22 20
5 21 -12 0 -16 5 -12 16 3 9 6 18 6 20 0 3 5 2 10 -1 6 -3 10 1 10 9 0 9 5 16
10 16 6 0 10 6 10 13 0 8 9 24 20 37 11 13 20 28 20 33 0 6 3 8 6 4 8 -8 72
69 92 111 9 17 20 32 25 32 5 0 7 7 3 15 -3 8 -1 15 4 15 5 0 12 9 15 20 4 11
11 18 16 15 5 -4 9 1 9 9 0 20 79 142 91 139 5 -2 16 12 24 30 14 28 14 30 0
13 -8 -11 -15 -24 -15 -30 0 -5 -2 -7 -5 -4 -7 6 64 157 82 176 7 7 13 17 13
22 0 5 6 15 13 22 7 7 21 33 32 58 11 25 42 86 70 135 75 133 148 307 265 630
40 108 101 267 136 353 35 86 62 157 60 159 -2 2 -31 -63 -66 -144 -34 -82
-63 -149 -65 -151 -1 -1 -2 11 -1 28 1 16 4 30 7 30 4 0 7 10 6 23 0 12 4 31
8 41 6 14 5 17 -3 12 -7 -4 -12 -4 -12 1 1 12 26 43 35 43 4 0 2 -7 -5 -15
-18 -22 -6 -29 14 -9 10 10 14 24 11 38 -5 15 -4 17 3 8 7 -11 10 -8 14 10 3
16 0 25 -8 25 -7 0 -12 -3 -10 -6 2 -3 -6 -15 -17 -26 l-20 -20 11 21 c8 15 8
24 -1 34 -9 10 -9 11 0 6 17 -9 28 14 12 26 -11 8 -10 9 3 5 20 -7 31 16 15
33 -9 10 -8 12 5 7 15 -5 16 -4 6 13 -12 19 -13 19 -23 -1 -6 -11 -14 -17 -18
-13 -7 7 19 56 61 113 19 26 27 30 34 20 7 -10 8 -9 4 6 -7 28 61 122 77 106
8 -8 8 -20 -1 -43 -22 -59 -5 -39 21 24 49 120 109 253 119 266 6 7 9 15 6 17
-2 3 -17 -16 -34 -42z m-70 -166 c-15 -31 -32 -53 -37 -50 -6 3 -6 8 0 12 5 3
20 28 32 54 13 26 25 46 28 44 2 -3 -8 -30 -23 -60z m-218 -319 c4 -7 4 -10
-1 -6 -4 4 -14 3 -22 -4 -11 -8 -12 -7 -7 6 7 19 20 21 30 4z m-52 -359 c-10
-23 -19 -38 -21 -33 -4 13 26 88 33 81 3 -2 -3 -24 -12 -48z m-53 -146 c-12
-20 -14 -14 -5 12 4 9 9 14 11 11 3 -2 0 -13 -6 -23z m-823 -853 c-7 -10 -14
-18 -15 -16 -6 6 9 36 18 36 5 0 4 -9 -3 -20z m13 -23 c-10 -9 -11 -8 -5 6 3
10 9 15 12 12 3 -3 0 -11 -7 -18z m-131 -326 c0 -5 -7 -12 -16 -15 -14 -5 -15
-4 -4 9 14 17 20 19 20 6z m-3 -76 c0 -8 -4 -12 -9 -9 -5 3 -6 10 -3 15 9 13
12 11 12 -6z m-23 -21 c3 -8 2 -12 -4 -9 -6 3 -10 10 -10 16 0 14 7 11 14 -7z
m46 -8 c0 -3 -4 -8 -10 -11 -5 -3 -10 -1 -10 4 0 6 5 11 10 11 6 0 10 -2 10
-4z m71 -300 c-10 -12 -6 -15 19 -21 16 -4 30 -10 30 -14 0 -4 16 -5 35 -3 20
2 35 0 35 -6 0 -6 -8 -11 -17 -10 -22 0 -170 -21 -198 -29 l-20 -5 20 16 c25
20 6 21 -21 1 -21 -16 -54 -20 -54 -6 0 19 32 43 43 32 7 -7 16 -1 29 20 11
17 22 29 25 26 3 -4 -2 -13 -11 -22 -20 -21 -20 -29 0 -21 8 3 12 2 9 -4 -11
-17 17 -11 31 8 13 16 15 16 29 -2 8 -11 15 -15 15 -10 0 6 -5 15 -11 21 -13
13 -5 43 12 43 9 0 9 -4 0 -14z m-1066 -27 c-22 -4 -51 -8 -65 -7 -35 1 34 15
75 16 25 0 23 -2 -10 -9z m889 -6 c4 -9 1 -21 -5 -27 -9 -8 -10 -7 -6 5 3 9 0
22 -6 28 -8 8 -8 11 0 11 6 0 14 -8 17 -17z m-31 -18 c-7 -21 -12 -19 -10 4 0
11 5 18 9 15 4 -3 5 -11 1 -19z m-970 8 c-7 -2 -19 -2 -25 0 -7 3 -2 5 12 5
14 0 19 -2 13 -5z m-76 -9 c-3 -3 -12 -4 -19 -1 -8 3 -5 6 6 6 11 1 17 -2 13
-5z m-50 -10 c-3 -3 -12 -4 -19 -1 -8 3 -5 6 6 6 11 1 17 -2 13 -5z m-160 -20
c-3 -3 -12 -4 -19 -1 -8 3 -5 6 6 6 11 1 17 -2 13 -5z m1493 -4 c0 -5 -2 -10
-4 -10 -3 0 -8 5 -11 10 -3 6 -1 10 4 10 6 0 11 -4 11 -10z m-55 -11 c-36 -10
-140 -21 -133 -13 3 3 27 7 54 10 26 2 50 7 53 9 2 3 16 5 30 4 25 -1 25 -1
-4 -10z m-1673 -19 c-19 -4 -68 -10 -110 -13 l-77 -5 80 13 c44 7 94 13 110
13 l30 0 -33 -8z m-235 -26 c-3 -3 -12 -4 -19 -1 -8 3 -5 6 6 6 11 1 17 -2 13
-5z m-158 -28 c-2 -2 -35 -6 -74 -9 -45 -3 -58 -3 -35 2 37 9 116 14 109 7z
m1894 -13 c-7 -2 -19 -2 -25 0 -7 3 -2 5 12 5 14 0 19 -2 13 -5z m-2066 -9
c-3 -3 -12 -4 -19 -1 -8 3 -5 6 6 6 11 1 17 -2 13 -5z m-84 -11 c-7 -2 -19 -2
-25 0 -7 3 -2 5 12 5 14 0 19 -2 13 -5z m-96 -9 c-3 -3 -12 -4 -19 -1 -8 3 -5
6 6 6 11 1 17 -2 13 -5z m2056 -6 c12 -7 48 -38 79 -68 44 -41 57 -59 52 -75
-4 -15 -3 -16 4 -6 5 7 15 11 21 7 22 -14 71 -95 92 -152 12 -33 56 -133 100
-224 46 -98 86 -197 97 -245 23 -94 90 -275 133 -360 17 -33 23 -51 14 -40
-31 38 -116 248 -155 385 -24 86 -50 150 -96 241 -57 115 -124 268 -124 286 0
7 -5 13 -11 13 -5 0 -8 4 -5 9 4 5 -6 19 -21 31 -16 12 -22 18 -14 14 9 -5 12
-3 7 4 -10 16 -36 15 -36 0 -1 -7 -7 1 -14 18 -8 18 -20 35 -28 40 -9 6 -9 3
2 -12 14 -19 14 -19 -8 0 -12 11 -22 23 -22 28 0 5 -13 21 -30 35 -16 13 -30
29 -30 35 0 5 -10 18 -22 29 -26 21 -18 25 15 7z m-2130 -5 c-7 -2 -19 -2 -25
0 -7 3 -2 5 12 5 14 0 19 -2 13 -5z m2268 -6 c-7 -7 -14 -8 -21 -1 -6 6 -2 10
12 11 16 2 18 -1 9 -10z m-2366 -8 c-51 -10 -92 -10 -50 1 17 4 44 8 60 8 25
0 24 -2 -10 -9z m2365 -19 c0 -5 -5 -10 -11 -10 -5 0 -7 5 -4 10 3 6 8 10 11
10 2 0 4 -4 4 -10z m-295 -21 c56 -21 77 -42 89 -89 5 -18 1 -15 -13 11 -26
47 -40 58 -108 79 -32 11 -50 19 -41 19 10 1 42 -8 73 -20z m308 -4 c-3 -9 -8
-14 -10 -11 -3 3 -2 9 2 15 9 16 15 13 8 -4z m92 -13 c-3 -3 -11 0 -18 7 -9
10 -8 11 6 5 10 -3 15 -9 12 -12z m15 -47 c0 -5 -5 -3 -10 5 -5 8 -10 20 -10
25 0 6 5 3 10 -5 5 -8 10 -19 10 -25z m75 -65 c3 -5 1 -10 -4 -10 -6 0 -11 5
-11 10 0 6 2 10 4 10 3 0 8 -4 11 -10z m-624 -18 c-5 -10 -18 -25 -27 -33 -11
-9 -9 -2 6 19 26 35 36 42 21 14z m34 -183 c-9 -17 -19 -29 -22 -26 -5 5 25
57 33 57 3 0 -3 -14 -11 -31z m-84 -72 l-23 -22 17 28 c10 15 20 25 23 22 3
-3 -5 -16 -17 -28z m54 3 c-3 -5 1 -10 9 -10 9 0 16 -4 16 -10 0 -12 -22 -9
-32 5 -4 5 -10 7 -13 3 -4 -3 0 -12 8 -19 13 -12 11 -20 -15 -56 -29 -44 -42
-55 -32 -29 3 8 1 17 -5 21 -6 3 -11 11 -11 18 0 6 6 2 14 -8 13 -18 14 -17
31 8 14 22 15 30 5 42 -10 12 -10 18 0 30 14 17 35 21 25 5z m-287 -50 c-7
-10 -14 -17 -17 -15 -4 4 18 35 25 35 2 0 -1 -9 -8 -20z m52 -10 c-12 -17 -18
-35 -14 -42 4 -7 4 -10 -1 -6 -4 4 -15 2 -24 -5 -8 -6 0 9 18 36 17 26 34 47
37 47 3 0 -4 -13 -16 -30z m188 5 c-3 -3 -9 2 -12 12 -6 14 -5 15 5 6 7 -7 10
-15 7 -18z m-148 2 c0 -2 -10 -12 -22 -23 l-23 -19 19 23 c18 21 26 27 26 19z
m-95 -47 c-9 -16 -18 -30 -21 -30 -2 0 2 14 11 30 9 17 18 30 21 30 2 0 -2
-13 -11 -30z m-35 -10 c-12 -16 -24 -30 -26 -30 -3 0 4 14 16 30 12 17 24 30
26 30 3 0 -4 -13 -16 -30z m95 -10 c-3 -5 -12 -10 -18 -10 -7 0 -6 4 3 10 19
12 23 12 15 0z m209 -4 c-3 -8 -13 -17 -22 -21 -13 -5 -13 -2 3 15 21 24 26
25 19 6z m-148 -24 c-17 -16 -18 -16 -5 5 7 12 15 20 18 17 3 -2 -3 -12 -13
-22z m97 14 c4 -10 1 -13 -8 -9 -8 3 -12 9 -9 14 7 12 11 11 17 -5z m-214 -44
c-24 -27 -36 -34 -42 -25 -8 13 12 53 27 53 5 0 1 -9 -9 -20 -30 -33 -11 -33
20 0 41 43 44 37 4 -8z m156 18 c3 -5 1 -10 -4 -10 -6 0 -11 5 -11 10 0 6 2
10 4 10 3 0 8 -4 11 -10z m45 7 c0 -2 -10 -12 -22 -23 l-23 -19 19 23 c18 21
26 27 26 19z m-260 -31 c0 -2 -8 -10 -17 -17 -16 -13 -17 -12 -4 4 13 16 21
21 21 13z m130 -35 c-5 -11 -15 -23 -21 -27 -6 -3 -3 5 6 20 20 30 30 35 15 7z
m86 -5 c0 -13 -4 -22 -7 -20 -4 2 -19 -14 -34 -36 -26 -37 -45 -55 -29 -27 15
27 67 107 70 107 1 0 1 -11 0 -24z m-36 4 c0 -5 -5 -10 -11 -10 -5 0 -7 5 -4
10 3 6 8 10 11 10 2 0 4 -4 4 -10z m-190 -13 c0 -2 -19 -18 -42 -36 l-43 -32
39 35 c37 34 46 40 46 33z m11 -26 c-6 -10 -7 -22 -3 -26 4 -5 1 -5 -6 -1 -9
5 -9 12 -2 27 6 10 13 19 16 19 2 0 0 -8 -5 -19z m229 -5 c0 -2 -7 -7 -16 -10
-8 -3 -12 -2 -9 4 6 10 25 14 25 6z m-140 -16 c0 -5 -5 -10 -11 -10 -5 0 -7 5
-4 10 3 6 8 10 11 10 2 0 4 -4 4 -10z m206 -5 c5 -11 10 -13 19 -5 10 8 15 8
21 -1 4 -7 3 -9 -4 -5 -6 3 -13 -3 -17 -14 -3 -11 -11 -20 -16 -20 -5 0 -23
-21 -39 -47 -17 -26 -30 -40 -30 -31 0 9 16 35 35 58 20 24 32 47 28 53 -5 8
-9 6 -11 -5 -2 -10 -10 -18 -18 -18 -8 0 -14 -6 -14 -14 0 -8 -4 -18 -10 -21
-6 -4 -7 1 -3 11 5 13 2 15 -18 9 -23 -7 -23 -7 -4 8 11 8 23 14 26 11 3 -2
12 8 19 21 15 29 28 32 36 10z m-120 -33 c-17 -16 -18 -16 -5 5 7 12 15 20 18
17 3 -2 -3 -12 -13 -22z m39 19 c3 -5 2 -12 -3 -15 -5 -3 -9 1 -9 9 0 17 3 19
12 6z m1246 -66 l10 -20 -16 20 c-9 11 -21 29 -26 40 l-10 20 16 -20 c9 -11
21 -29 26 -40z m-1367 27 c3 -5 -1 -9 -9 -9 -8 0 -12 4 -9 9 3 4 7 8 9 8 2 0
6 -4 9 -8z m24 -26 c-13 -19 -24 -33 -26 -31 -5 4 37 65 44 65 2 0 -6 -15 -18
-34z m-153 14 c3 -5 2 -10 -4 -10 -5 0 -13 5 -16 10 -3 6 -2 10 4 10 5 0 13
-4 16 -10z m219 -5 c-4 -8 -10 -15 -15 -15 -4 0 -6 7 -3 15 4 8 10 15 15 15 4
0 6 -7 3 -15z m-336 -15 c-7 -10 -14 -17 -17 -15 -4 4 18 35 25 35 2 0 -1 -9
-8 -20z m102 -1 c12 -9 12 -10 -3 -5 -12 4 -26 -2 -38 -16 l-20 -23 17 28 c18
30 22 32 44 16z m-10 -23 c0 -2 -8 -10 -17 -17 -16 -13 -17 -12 -4 4 13 16 21
21 21 13z m1546 -7 c3 -6 1 -16 -6 -22 -10 -9 -11 -9 -5 2 4 8 2 17 -6 22 -9
6 -10 9 -2 9 6 0 15 -5 19 -11z m-1625 -8 c4 7 10 11 14 8 3 -3 -3 -13 -13
-22 -17 -15 -18 -15 -19 6 0 12 1 16 4 8 5 -11 7 -11 14 0z m89 -9 c0 -5 -7
-17 -15 -28 -14 -18 -14 -17 -4 9 12 27 19 34 19 19z m-157 -47 c-13 -25 -27
-45 -29 -45 -5 0 24 60 38 78 20 24 16 12 -9 -33z m81 20 c-4 -8 -11 -15 -16
-15 -6 0 -5 6 2 15 7 8 14 15 16 15 2 0 1 -7 -2 -15z m-44 -8 c0 -7 -14 -28
-31 -47 l-30 -35 25 36 c14 20 26 41 26 47 0 7 2 12 5 12 3 0 5 -6 5 -13z
m134 -32 c-14 -19 -29 -35 -31 -35 -5 0 7 18 36 53 26 31 23 18 -5 -18z m-124
-7 c-19 -21 -24 -33 -21 -51 1 -5 -3 -6 -8 -2 -6 3 -25 -17 -43 -44 -18 -28
-36 -51 -40 -51 -4 0 20 38 53 85 34 47 65 85 70 85 6 0 1 -10 -11 -22z m133
-23 c-10 -13 -22 -25 -27 -25 -5 0 1 11 14 25 30 32 36 32 13 0z m-210 -40
c-3 -9 -8 -14 -10 -11 -3 3 -2 9 2 15 9 16 15 13 8 -4z m167 -25 c-6 -11 -13
-20 -16 -20 -2 0 0 9 6 20 6 11 13 20 16 20 2 0 0 -9 -6 -20z m-191 -13 c0 -9
-2 -8 -6 1 -2 6 -10 9 -15 6 -7 -4 -8 -2 -4 5 9 13 26 5 25 -12z m81 3 c-6
-11 -13 -20 -16 -20 -2 0 0 9 6 20 6 11 13 20 16 20 2 0 0 -9 -6 -20z m198
-20 c-7 -10 -14 -17 -17 -15 -4 4 18 35 25 35 2 0 -1 -9 -8 -20z m-158 -10
c-6 -11 -13 -20 -16 -20 -2 0 0 9 6 20 6 11 13 20 16 20 2 0 0 -9 -6 -20z
m-78 -28 c-7 -2 -10 -8 -6 -13 3 -5 1 -9 -5 -9 -5 0 -13 5 -16 10 -3 6 -1 10
5 10 6 0 8 4 5 10 -4 6 1 7 11 3 11 -4 13 -8 6 -11z m-52 -7 c0 -8 -30 -55
-63 -97 -15 -21 -29 -46 -30 -57 -1 -16 -5 -18 -19 -10 -10 5 -18 12 -18 15 0
3 4 3 9 -1 9 -5 35 29 36 46 0 4 11 16 25 28 14 11 19 20 13 21 -8 0 -5 8 7
20 11 11 20 25 20 30 0 6 5 10 10 10 6 0 10 -2 10 -5z m230 1 c0 -2 -8 -10
-17 -17 -16 -13 -17 -12 -4 4 13 16 21 21 21 13z m-217 -63 c-3 -7 -9 -13 -15
-13 -5 0 -7 -4 -4 -9 3 -5 -2 -15 -12 -22 -15 -13 -16 -12 -3 4 8 10 9 17 3
17 -6 0 -16 -8 -21 -17 -6 -10 -11 -13 -11 -6 0 6 11 21 26 32 14 11 25 22 25
25 -3 25 0 30 8 17 5 -8 7 -20 4 -28z m1955 -38 c-3 -3 -9 2 -12 12 -6 14 -5
15 5 6 7 -7 10 -15 7 -18z m-1775 -20 c-3 -9 -8 -14 -10 -11 -3 3 -2 9 2 15 9
16 15 13 8 -4z m1797 -30 c0 -5 -5 -3 -10 5 -5 8 -10 20 -10 25 0 6 5 3 10 -5
5 -8 10 -19 10 -25z m-2020 16 c0 -6 -4 -12 -8 -15 -5 -3 -9 1 -9 9 0 8 4 15
9 15 4 0 8 -4 8 -9z m103 -12 c-6 -6 -10 -17 -7 -23 2 -6 -10 -27 -27 -46 -17
-19 -28 -28 -24 -20 5 8 17 25 27 36 10 12 18 25 17 30 -3 13 13 46 19 39 3
-3 1 -10 -5 -16z m150 -1 c-4 -7 -20 -13 -35 -13 -14 -1 -24 3 -22 7 3 4 16 8
30 8 13 0 24 5 24 12 0 6 3 9 6 5 3 -3 2 -11 -3 -19z m-183 -23 c0 -2 -6 -8
-13 -14 -10 -8 -14 -7 -14 2 0 8 6 14 14 14 7 0 13 -1 13 -2z m105 -29 c-8
-13 -14 -29 -12 -37 2 -8 2 -10 -1 -6 -2 4 -15 -7 -28 -24 -13 -18 -24 -30
-24 -25 0 10 68 116 75 116 3 0 -1 -11 -10 -24z m-215 5 c0 -5 -7 -12 -16 -15
-14 -5 -15 -4 -4 9 14 17 20 19 20 6z m-56 -27 c3 -8 2 -12 -4 -9 -6 3 -10 10
-10 16 0 14 7 11 14 -7z m294 -19 c-3 -3 -9 2 -12 12 -6 14 -5 15 5 6 7 -7 10
-15 7 -18z m-328 -25 c-6 -11 -12 -20 -14 -20 -2 0 -2 9 1 20 3 11 9 20 15 20
5 0 4 -9 -2 -20z m54 5 c-7 -18 -20 -19 -30 -3 -4 6 -3 8 4 4 6 -3 13 -2 17 4
9 15 15 12 9 -5z m229 -20 c-3 -9 -8 -14 -10 -11 -3 3 -2 9 2 15 9 16 15 13 8
-4z m-143 -9 c0 -2 -8 -10 -17 -17 -16 -13 -17 -12 -4 4 13 16 21 21 21 13z
m-99 -29 c-10 -9 -11 -8 -5 6 3 10 9 15 12 12 3 -3 0 -11 -7 -18z m-97 -36
c-9 -18 -18 -30 -21 -27 -3 2 3 18 13 35 23 39 29 34 8 -8z m80 -6 c-4 -8 -11
-12 -16 -9 -6 4 -5 10 3 15 19 12 19 11 13 -6z m176 -16 c0 -6 -4 -7 -10 -4
-5 3 -10 11 -10 16 0 6 5 7 10 4 6 -3 10 -11 10 -16z m1985 -7 c-3 -3 -11 0
-18 7 -9 10 -8 11 6 5 10 -3 15 -9 12 -12z m85 -102 c0 -5 -5 -10 -11 -10 -5
0 -7 5 -4 10 3 6 8 10 11 10 2 0 4 -4 4 -10z m-2427 -15 c-3 -9 -8 -14 -10
-11 -3 3 -2 9 2 15 9 16 15 13 8 -4z m47 11 c0 -2 -7 -7 -16 -10 -8 -3 -12 -2
-9 4 6 10 25 14 25 6z m100 -11 c0 -2 -6 -5 -13 -8 -8 -3 -14 1 -14 8 0 7 6
11 14 8 7 -3 13 -6 13 -8z m2304 -44 c3 -5 -2 -15 -12 -22 -15 -12 -16 -12 -5
2 7 9 10 19 6 22 -3 4 -4 7 0 7 3 0 8 -4 11 -9z m-2319 -152 c-4 -5 -15 -14
-26 -20 -20 -10 -20 -10 -4 15 15 23 44 28 30 5z m-65 -2 c0 -2 -19 -21 -42
-42 l-43 -40 40 43 c36 39 45 47 45 39z m2385 -97 c10 -11 16 -20 13 -20 -3 0
-13 9 -23 20 -10 11 -16 20 -13 20 3 0 13 -9 23 -20z m-2475 6 c0 -2 -8 -10
-17 -17 -16 -13 -17 -12 -4 4 13 16 21 21 21 13z m-222 -121 c-6 -14 -15 -25
-20 -25 -5 0 -1 11 8 25 9 14 18 25 20 25 2 0 -2 -11 -8 -25z m122 -1 c-8 -8
-23 -20 -34 -25 -15 -7 -13 -3 7 15 31 29 47 35 27 10z m2723 -9 c-3 -9 -8
-14 -10 -11 -3 3 -2 9 2 15 9 16 15 13 8 -4z m-7 -34 c-4 -5 0 -11 6 -14 7 -2
10 -7 7 -11 -3 -3 -14 3 -24 14 -17 18 -17 20 -1 20 9 0 15 -4 12 -9z"/>
<path d="M4085 3890 c-3 -5 -1 -10 4 -10 6 0 11 5 11 10 0 6 -2 10 -4 10 -3 0
-8 -4 -11 -10z"/>
<path d="M3875 3690 c10 -11 20 -20 23 -20 3 0 -3 9 -13 20 -10 11 -20 20 -23
20 -3 0 3 -9 13 -20z"/>
<path d="M2030 6565 c0 -5 15 -33 33 -62 126 -202 152 -240 176 -258 22 -16
20 -12 -10 25 -31 39 -153 224 -187 285 -6 11 -12 16 -12 10z"/>
<path d="M2181 6268 c7 -13 20 -34 29 -48 23 -34 195 -348 238 -435 19 -38 81
-153 137 -255 113 -204 187 -340 303 -563 153 -295 366 -652 382 -642 5 3 12
0 16 -6 4 -8 3 -9 -4 -5 -7 4 -12 4 -12 1 0 -10 121 -186 164 -240 23 -28 48
-61 57 -74 15 -25 16 -25 99 -13 82 12 132 32 79 32 -33 0 -68 40 -58 66 13
33 10 37 -16 20 -25 -17 -25 -16 -13 4 7 11 17 20 22 20 4 0 1 11 -8 25 -9 14
-14 31 -9 38 4 8 1 7 -10 -2 -17 -14 -24 -37 -8 -27 17 11 22 -27 5 -43 -15
-15 -16 -14 -7 3 9 15 3 26 -30 58 -36 35 -64 90 -37 73 5 -3 10 -14 10 -23 0
-9 11 -25 24 -34 21 -15 25 -15 30 -3 3 8 3 22 0 30 -4 8 -2 15 4 15 6 0 12
-5 14 -12 3 -7 7 -5 11 6 4 10 3 15 -3 11 -5 -3 -18 12 -30 34 -13 26 -16 42
-9 46 6 4 13 4 16 1 4 -3 1 -6 -6 -6 -8 0 -7 -9 5 -29 16 -28 34 -33 34 -10 0
6 -4 7 -10 4 -5 -3 -10 -2 -10 4 0 5 6 12 13 14 7 3 4 6 -6 6 -10 1 -16 5 -13
10 3 5 -1 14 -9 21 -8 7 -15 19 -15 27 0 13 3 13 15 3 26 -22 29 -2 4 28 -13
16 -32 41 -43 56 -10 14 -24 23 -30 19 -6 -3 -7 -2 -3 3 5 5 13 9 19 9 6 0 12
14 13 30 2 17 1 24 -2 18 -5 -14 -40 24 -63 66 -9 17 -14 20 -20 11 -5 -8 -8
-4 -7 13 l2 26 28 -27 c15 -14 25 -32 23 -39 -3 -7 0 -15 6 -19 6 -4 9 -3 6 2
-7 11 17 35 26 27 11 -11 6 -24 -5 -17 -7 4 -10 1 -7 -7 3 -8 13 -15 24 -16
10 -2 14 0 8 3 -6 2 -9 17 -6 32 3 15 1 24 -3 19 -5 -4 -15 7 -22 24 -8 19
-17 28 -25 23 -8 -5 -9 -2 -5 10 5 11 3 15 -5 10 -8 -5 -9 -2 -5 9 4 11 1 17
-8 17 -21 0 -19 -13 6 -44 12 -15 19 -29 16 -32 -2 -3 -14 7 -26 23 -15 18
-20 35 -16 51 4 17 2 22 -6 16 -7 -4 -9 -3 -6 3 8 13 -19 75 -51 121 -13 17
-20 32 -17 32 4 0 -15 23 -43 52 -35 36 -54 49 -66 45 -14 -6 -15 -9 -4 -21 9
-10 15 -11 20 -2 4 6 8 7 8 1 0 -5 -4 -16 -9 -24 -7 -11 -11 -9 -20 8 -7 12
-17 19 -23 15 -7 -5 -9 -2 -5 9 4 11 2 14 -7 11 -8 -3 -24 9 -37 28 -21 30
-21 31 -2 15 16 -14 22 -15 27 -5 3 7 4 2 1 -12 -3 -14 -2 -20 1 -13 3 7 13 9
22 5 15 -5 15 -4 0 12 -18 17 -24 36 -12 36 4 0 12 -7 18 -16 10 -13 12 -13
12 5 0 11 -3 19 -6 18 -10 -4 -47 38 -54 61 -9 26 -21 28 -35 5 -9 -16 -10
-16 -8 4 0 12 5 19 9 17 12 -8 10 4 -7 36 -9 17 -21 30 -27 30 -6 0 -9 3 -5 6
10 11 -30 80 -57 98 -24 15 -39 45 -16 31 17 -10 11 3 -12 30 -22 25 -45 35
-32 13 4 -7 3 -8 -5 -4 -6 4 -9 12 -6 17 4 5 1 17 -4 26 -6 10 -11 14 -11 10
0 -11 -50 43 -50 54 0 5 -7 9 -17 9 -9 0 -14 2 -11 5 3 3 -26 37 -64 75 -62
64 -87 102 -55 84 6 -4 -15 21 -47 54 -33 34 -62 59 -66 57 -8 -5 -139 126
-140 140 -1 6 -41 57 -89 115 -48 58 -94 116 -103 130 -9 14 -29 39 -43 55
l-27 30 23 -35 c36 -56 108 -149 178 -230 l65 -75 -68 65 c-83 80 -191 206
-241 283 -38 58 -55 75 -34 35z m247 -383 c-3 -3 -9 2 -12 12 -6 14 -5 15 5 6
7 -7 10 -15 7 -18z m328 -232 c-6 -6 -77 61 -88 82 -6 11 13 -2 41 -29 28 -28
49 -51 47 -53z m-26 -8 c19 -19 32 -35 29 -35 -3 0 -20 16 -39 35 -19 19 -32
35 -29 35 3 0 20 -16 39 -35z m-40 -220 c0 -5 -5 -3 -10 5 -5 8 -10 20 -10 25
0 6 5 3 10 -5 5 -8 10 -19 10 -25z m28 0 c-3 -3 -9 2 -12 12 -6 14 -5 15 5 6
7 -7 10 -15 7 -18z m52 -130 c0 -5 -5 -3 -10 5 -5 8 -10 20 -10 25 0 6 5 3 10
-5 5 -8 10 -19 10 -25z m222 3 c-7 -7 -12 -8 -12 -2 0 14 12 26 19 19 2 -3 -1
-11 -7 -17z m-127 -38 c3 -5 1 -10 -4 -10 -6 0 -11 5 -11 10 0 6 2 10 4 10 3
0 8 -4 11 -10z m-40 -30 c-3 -5 -12 -10 -18 -10 -7 0 -6 4 3 10 19 12 23 12
15 0z m64 -4 c9 -11 9 -16 -1 -22 -7 -4 -10 -4 -6 1 4 4 3 14 -3 22 -6 7 -9
13 -6 13 2 0 10 -6 16 -14z m161 -6 c6 -11 16 -19 22 -17 7 1 13 -10 13 -25 1
-14 5 -32 10 -40 6 -8 2 -5 -8 5 -11 12 -15 27 -11 40 4 11 2 17 -4 13 -5 -3
-17 3 -27 14 -10 11 -22 17 -28 13 -6 -3 -7 -1 -3 5 11 18 24 14 36 -8z m-220
-20 c0 -5 -2 -10 -4 -10 -3 0 -8 5 -11 10 -3 6 -1 10 4 10 6 0 11 -4 11 -10z
m23 -35 c-3 -9 -8 -14 -10 -11 -3 3 -2 9 2 15 9 16 15 13 8 -4z m267 -20 c0
-5 -5 -3 -10 5 -5 8 -10 20 -10 25 0 6 5 3 10 -5 5 -8 10 -19 10 -25z m-217 0
c-3 -9 -8 -14 -10 -11 -3 3 -2 9 2 15 9 16 15 13 8 -4z m112 -5 c10 -11 16
-20 13 -20 -3 0 -13 9 -23 20 -10 11 -16 20 -13 20 3 0 13 -9 23 -20z m-26 -4
c9 -11 9 -16 -1 -22 -7 -4 -10 -4 -6 1 4 4 3 14 -3 22 -6 7 -9 13 -6 13 2 0
10 -6 16 -14z m-113 -19 c5 -1 8 -6 6 -10 -2 -8 27 -69 37 -77 15 -11 50 -80
41 -80 -6 0 -10 4 -10 10 0 5 -10 18 -22 30 -12 11 -18 20 -14 20 5 0 3 6 -3
14 -14 17 -61 105 -61 114 0 4 4 1 9 -6 4 -8 12 -14 17 -15z m60 -11 c0 -14
-5 -21 -9 -17 -4 4 -5 15 -1 24 9 24 12 21 10 -7z m152 -21 c-3 -3 -9 2 -12
12 -6 14 -5 15 5 6 7 -7 10 -15 7 -18z m46 0 c9 -14 13 -25 8 -25 -5 0 -14 11
-20 25 -6 14 -10 25 -8 25 2 0 11 -11 20 -25z m43 -5 c-3 -13 1 -21 14 -25 21
-7 23 -13 9 -35 -8 -12 -10 -12 -15 2 -4 9 -13 14 -21 11 -8 -3 -14 0 -14 7 0
6 5 8 11 5 6 -4 10 -1 8 6 -3 24 1 49 7 49 4 0 4 -9 1 -20z m-224 -23 c3 -8 2
-20 -3 -26 -5 -9 -7 -4 -7 13 0 29 2 32 10 13z m35 -56 c-7 -9 -13 -17 -14
-19 -1 -1 -7 5 -15 15 -9 11 -10 14 -1 9 6 -4 12 -3 12 2 0 5 7 9 15 9 12 0
12 -3 3 -16z m15 -52 c-4 -16 -8 -17 -14 -7 -5 7 -4 14 1 16 6 2 7 9 4 14 -4
6 -2 8 4 5 5 -4 8 -16 5 -28z m168 4 c13 -16 12 -17 -3 -4 -17 13 -22 21 -14
21 2 0 10 -8 17 -17z m-184 -39 c12 -26 12 -26 -7 -9 -20 18 -26 35 -12 35 4
0 12 -12 19 -26z m172 -59 c0 -5 -8 6 -19 25 -11 19 -19 40 -19 45 0 6 8 -6
19 -25 11 -19 19 -39 19 -45z m-99 10 c0 -5 -5 -3 -10 5 -5 8 -10 20 -10 25 0
6 5 3 10 -5 5 -8 10 -19 10 -25z m-76 2 c4 4 4 -1 0 -10 -3 -10 -7 -17 -8 -15
-1 2 -8 12 -16 23 -14 18 -13 19 1 8 9 -7 19 -10 23 -6z m240 -3 c3 -8 2 -12
-4 -9 -6 3 -10 10 -10 16 0 14 7 11 14 -7z m-168 -57 c9 -16 11 -26 5 -23 -7
5 -9 -4 -6 -26 5 -30 4 -31 -4 -6 -5 15 -21 44 -36 65 l-27 38 30 -35 c36 -41
42 -33 10 13 -17 24 -18 28 -4 18 9 -8 24 -28 32 -44z m131 -2 l-7 20 16 -20
c8 -11 18 -19 22 -18 4 1 8 -11 9 -25 l1 -27 -15 29 c-8 16 -18 24 -22 18 -3
-5 -14 1 -25 17 l-20 26 24 -20 23 -20 -6 20z m-169 -31 c-4 -3 -12 5 -18 18
-12 22 -12 22 6 6 10 -10 15 -20 12 -24z m69 -1 c-4 -3 -1 -13 6 -22 11 -14
10 -14 -5 -2 -16 12 -16 31 -1 31 4 0 3 -3 0 -7z m82 -6 c-2 -1 -13 -9 -24
-17 -19 -14 -19 -14 -6 3 7 9 18 17 24 17 6 0 8 -1 6 -3z m-135 -23 c3 -8 2
-12 -4 -9 -6 3 -10 10 -10 16 0 14 7 11 14 -7z m66 -35 c15 -28 5 -23 -15 7
-9 15 -12 23 -6 20 6 -4 16 -16 21 -27z m69 -34 c0 -5 -4 -2 -10 9 -8 13 -13
15 -19 6 -5 -8 -9 -7 -13 5 -4 9 -3 13 3 10 6 -3 10 -1 10 6 0 7 7 4 15 -7 8
-10 14 -23 14 -29z m150 -5 c11 -24 11 -24 -3 -6 -9 11 -16 24 -16 30 0 12 5
7 19 -24z m74 -21 c4 -16 3 -18 -9 -8 -7 6 -11 15 -8 20 8 13 11 11 17 -12z
m-178 -1 c5 4 5 1 1 -6 -6 -9 -11 -10 -21 -2 -9 8 -17 6 -29 -5 -9 -9 -16 -12
-16 -6 0 16 33 31 46 20 6 -5 15 -5 19 -1z m-95 -52 c0 -12 -5 -7 -19 24 -11
24 -11 24 3 6 9 -11 16 -24 16 -30z m254 16 c3 7 4 4 1 -8 -3 -13 2 -27 15
-39 11 -10 20 -13 20 -7 0 6 -4 14 -10 17 -5 3 -10 11 -10 17 0 5 9 0 19 -13
13 -16 16 -26 8 -31 -8 -5 -7 -14 3 -32 15 -29 25 -26 25 10 0 30 16 32 34 4
12 -18 12 -21 0 -18 -8 2 -13 -4 -12 -12 5 -27 -37 -18 -59 12 -10 15 -16 28
-11 28 4 0 3 4 -2 8 -6 4 -22 23 -35 42 -13 19 -17 29 -8 22 13 -10 17 -10 22
0z m136 -2 c0 -5 -4 -10 -10 -10 -5 0 -10 5 -10 10 0 6 5 10 10 10 6 0 10 -4
10 -10z m-65 -38 c-3 -3 -11 0 -18 7 -9 10 -8 11 6 5 10 -3 15 -9 12 -12z
m-239 -33 c4 -8 1 -8 -14 0 -12 6 -24 16 -28 22 -4 8 -1 8 14 0 12 -6 24 -16
28 -22z m15 14 c13 -16 12 -17 -3 -4 -17 13 -22 21 -14 21 2 0 10 -8 17 -17z
m117 -39 c-4 -3 -12 5 -18 18 -12 22 -12 22 6 6 10 -10 15 -20 12 -24z m57
-15 c4 -10 11 -19 16 -19 5 0 9 -8 9 -17 0 -14 -2 -15 -9 -5 -4 8 -12 14 -17
15 -5 1 -8 8 -8 15 1 7 -3 11 -10 9 -6 -3 -10 -10 -8 -16 1 -7 -2 -10 -8 -6
-7 4 -7 12 0 24 5 10 6 21 2 25 -3 4 1 4 10 1 10 -4 20 -15 23 -26z m-100 -32
c4 5 5 2 1 -5 -4 -7 -2 -21 5 -30 8 -10 4 -9 -11 4 -14 12 -32 19 -40 17 -13
-4 -13 -3 0 6 12 8 12 13 2 23 -9 9 -12 9 -12 -2 0 -13 -1 -13 -9 0 -18 27 1
31 28 6 15 -15 31 -23 36 -19z m-91 -13 c3 -8 2 -12 -4 -9 -6 3 -10 10 -10 16
0 14 7 11 14 -7z m150 0 c3 -8 2 -12 -4 -9 -6 3 -10 10 -10 16 0 14 7 11 14
-7z m31 -4 c3 -5 1 -10 -4 -10 -6 0 -11 5 -11 10 0 6 2 10 4 10 3 0 8 -4 11
-10z m-134 -75 l10 -20 -16 20 c-9 11 -21 29 -26 40 l-10 20 16 -20 c9 -11 21
-29 26 -40z m54 23 c5 4 5 2 1 -5 -3 -6 -2 -14 4 -18 5 -3 10 -11 10 -18 0 -6
-11 4 -25 23 -14 19 -25 36 -25 39 0 3 7 -2 14 -11 7 -10 17 -14 21 -10z m52
5 c-4 9 -4 17 -2 17 14 0 21 -38 11 -62 l-11 -27 -18 30 c-9 17 -12 27 -7 24
14 -9 12 8 -2 25 -7 8 -2 6 11 -5 22 -18 24 -18 18 -2z m158 -43 c4 -6 9 -22
11 -37 4 -23 3 -25 -11 -13 -12 10 -13 15 -3 21 9 6 8 10 -5 15 -9 3 -17 10
-17 15 0 12 17 11 25 -1z m-93 -23 c3 4 3 3 2 -4 -5 -19 13 -25 34 -12 16 10
23 9 42 -9 13 -12 27 -19 31 -16 4 2 11 -1 15 -7 3 -6 0 -15 -7 -20 -11 -7
-11 -9 2 -9 11 0 16 -9 16 -30 0 -23 -3 -27 -14 -19 -7 6 -11 15 -8 19 6 9
-45 70 -58 70 -5 0 -6 -8 -2 -17 5 -14 4 -15 -6 -6 -10 10 -9 15 1 28 9 11 9
15 1 15 -6 0 -14 -7 -18 -15 -5 -14 -7 -14 -24 1 -10 9 -22 14 -26 11 -5 -3
-9 3 -9 13 0 13 4 16 12 9 7 -5 14 -6 16 -2z m-48 -33 c3 -8 2 -12 -4 -9 -6 3
-10 10 -10 16 0 14 7 11 14 -7z m130 -170 c3 -8 2 -12 -4 -9 -6 3 -10 10 -10
16 0 14 7 11 14 -7z m52 -98 c13 -28 13 -29 0 -11 -9 11 -19 25 -24 30 -4 6
-12 17 -17 25 -8 13 -7 13 9 1 9 -8 24 -28 32 -45z"/>
<path d="M3450 4541 c0 -5 5 -13 10 -16 6 -3 10 -2 10 4 0 5 -4 13 -10 16 -5
3 -10 2 -10 -4z"/>
<path d="M5316 6169 c-2 -8 -9 -29 -15 -48 -17 -53 -5 -48 13 5 9 26 14 50 11
52 -2 3 -6 -1 -9 -9z"/>
<path d="M5230 6156 c0 -2 8 -10 18 -17 15 -13 16 -12 3 4 -13 16 -21 21 -21
13z"/>
<path d="M6180 5888 c-25 -17 -79 -59 -120 -93 -81 -67 -340 -260 -488 -365
-53 -37 -90 -70 -88 -77 3 -8 -1 -10 -11 -6 -12 5 -14 3 -8 -7 6 -10 4 -12 -7
-7 -18 6 -52 -25 -41 -38 5 -4 3 -5 -3 -2 -19 11 -227 -181 -343 -318 -77 -90
-147 -192 -138 -201 3 -3 13 8 21 25 11 20 21 28 31 25 8 -4 15 -8 15 -11 0
-3 -7 -2 -15 1 -11 4 -17 -3 -21 -23 -5 -22 -11 -29 -25 -26 -25 5 -43 -28
-29 -54 5 -11 10 -23 10 -28 -1 -4 -7 3 -14 16 -12 22 -17 17 -106 -130 -51
-85 -117 -190 -147 -234 -33 -48 -43 -68 -26 -50 16 17 32 38 36 49 6 16 10
16 24 5 15 -13 16 -11 10 12 -8 30 15 60 29 38 5 -8 3 -9 -5 -5 -8 5 -11 3
-10 -5 6 -28 -11 -67 -31 -72 -26 -7 -26 -39 0 -62 11 -10 17 -21 15 -26 -11
-17 15 -19 58 -4 79 27 140 57 129 64 -7 4 -4 11 9 20 12 7 18 8 14 2 -3 -6
-2 -11 4 -11 5 0 13 4 16 10 11 17 72 7 86 -15 10 -17 10 -18 -2 -9 -34 27
-59 26 -109 -6 -27 -17 -87 -46 -132 -64 -46 -18 -101 -45 -122 -59 -30 -21
-42 -24 -52 -16 -8 6 -14 16 -14 22 0 7 4 7 12 -1 14 -14 32 -16 23 -3 -3 6 3
9 12 8 15 -1 73 29 73 38 0 2 -15 2 -32 1 -21 -1 -32 -6 -30 -14 1 -8 -2 -11
-7 -8 -5 4 -12 2 -16 -4 -4 -7 -13 -6 -27 1 -26 14 -64 4 -73 -18 -12 -28 -14
-103 -4 -103 6 0 8 4 5 9 -3 4 3 16 14 26 12 11 20 13 20 6 0 -7 9 -6 25 5 28
18 108 27 99 12 -4 -5 -14 -8 -24 -5 -21 5 -34 -15 -19 -30 6 -6 2 -9 -12 -9
-12 1 -24 -6 -27 -14 -5 -13 -3 -13 13 0 17 14 18 13 12 -12 -4 -15 -3 -30 3
-33 5 -3 10 -1 10 4 0 6 4 11 10 11 5 0 7 -6 4 -14 -3 -9 3 -17 17 -21 14 -5
25 -3 27 4 2 6 11 11 20 11 13 0 14 -2 3 -9 -8 -5 -9 -11 -3 -15 6 -3 13 -2
17 4 4 7 12 7 26 0 14 -8 19 -7 19 2 0 8 5 6 11 -5 8 -14 14 -15 30 -6 11 5
25 8 32 5 9 -3 9 -5 0 -5 -7 -1 -13 -8 -13 -16 0 -13 4 -14 21 -4 12 6 43 9
69 7 27 -1 47 -1 45 2 -2 3 18 5 43 5 57 -1 76 6 42 17 -15 5 -6 6 25 2 36 -3
46 -2 35 5 -13 9 -12 11 3 11 35 0 11 -24 -42 -42 -30 -10 -59 -22 -66 -28 -6
-5 -20 -11 -31 -13 -23 -5 -94 -36 -94 -41 0 -5 131 42 197 69 19 8 38 15 42
15 3 0 6 -25 6 -55 0 -47 4 -58 27 -80 27 -25 73 -34 80 -16 2 6 24 11 49 12
45 3 52 10 36 36 -6 9 -20 5 -56 -13 -51 -25 -91 -31 -91 -14 0 10 47 26 67
22 6 -1 14 2 18 8 3 5 -1 10 -9 10 -9 0 -16 5 -16 11 0 5 -5 7 -12 3 -7 -4 -8
-3 -4 4 5 9 13 9 29 0 19 -10 20 -9 10 4 -7 8 -10 18 -6 21 3 4 -1 7 -10 7
-10 0 -17 5 -17 11 0 5 -4 8 -9 5 -4 -3 -17 1 -27 8 -13 10 -23 11 -31 4 -19
-15 -17 10 1 28 10 10 17 11 22 3 4 -8 9 -7 15 2 4 7 24 13 46 12 28 0 33 1
18 7 -16 6 -17 9 -5 14 8 3 74 28 145 54 179 67 438 168 635 247 286 116 456
182 524 205 36 12 66 23 66 25 0 1 -9 5 -20 8 -11 3 -18 1 -15 -3 3 -5 -21
-16 -52 -25 -32 -9 -71 -21 -88 -28 -16 -6 -32 -12 -35 -12 -16 -1 -161 -59
-166 -66 -2 -4 -11 -6 -19 -2 -8 3 -15 1 -15 -4 0 -16 -50 -33 -78 -27 -20 4
-23 3 -12 -5 12 -8 9 -12 -15 -21 -98 -38 -143 -53 -168 -57 -15 -3 -30 -9
-33 -14 -3 -5 -13 -9 -22 -9 -27 0 3 16 73 39 89 29 118 41 113 46 -2 3 -49
-11 -104 -31 -54 -19 -120 -41 -146 -49 -25 -7 -51 -16 -56 -19 -6 -3 -13 0
-16 6 -3 7 -3 2 0 -12 5 -20 4 -23 -7 -12 -15 14 -33 16 -25 3 4 -5 -2 -7 -12
-4 -9 2 -59 -10 -109 -26 -51 -18 -99 -28 -109 -24 -12 4 -15 3 -10 -5 5 -8
-3 -11 -26 -9 -20 2 -38 -3 -46 -13 -8 -8 -11 -9 -7 -2 8 15 -17 16 -33 0 -8
-8 -12 -8 -12 -1 0 6 7 14 16 17 8 3 13 10 10 15 -10 16 134 58 155 46 7 -5
10 -4 6 2 -9 14 20 25 43 18 9 -3 23 1 30 10 7 8 18 15 24 15 6 0 4 -5 -4 -10
-11 -8 -7 -9 15 -4 60 12 199 56 219 69 12 7 68 27 126 45 128 39 216 78 253
112 15 14 27 28 27 31 0 24 -165 26 -275 3 -128 -27 -274 -46 -350 -44 -38 0
-59 2 -45 4 14 3 43 9 64 15 30 8 36 13 25 21 -10 7 -2 8 26 4 22 -3 34 -3 28
0 -21 9 -15 19 12 21 55 5 63 8 58 16 -3 5 1 7 8 6 24 -5 79 12 73 22 -3 5 1
10 8 10 7 1 19 2 26 3 7 0 17 7 21 15 5 8 18 12 30 8 12 -3 19 0 18 6 -2 11
59 28 102 29 19 0 21 2 10 10 -10 7 -8 9 9 5 12 -3 22 -1 22 4 0 5 8 9 18 9
10 0 63 15 117 34 55 18 135 44 178 56 42 13 75 25 73 27 -2 3 -114 -28 -248
-67 -354 -105 -397 -118 -460 -139 -32 -11 -60 -16 -63 -11 -3 5 9 11 26 15
17 4 28 9 25 12 -4 4 23 28 112 98 8 5 26 22 42 37 15 15 30 25 32 23 2 -2 37
27 78 66 41 39 61 61 45 51 -17 -11 -48 -39 -70 -61 -21 -22 -49 -42 -61 -45
-13 -4 -26 -15 -29 -26 -3 -11 -12 -20 -19 -20 -6 0 -27 -13 -46 -30 -19 -16
-41 -29 -48 -30 -7 0 3 14 23 31 19 17 32 35 29 40 -6 10 -34 -2 -56 -25 -15
-15 -58 -31 -58 -22 0 4 24 22 53 40 28 19 79 54 112 79 33 25 64 43 70 40 5
-4 7 -3 3 2 -4 4 11 21 32 36 22 16 40 31 40 34 0 7 -103 -55 -115 -70 -5 -7
-32 -25 -60 -41 -33 -18 -45 -22 -36 -11 9 12 10 17 2 17 -17 0 -3 20 22 31
12 5 36 18 52 28 17 10 33 17 36 15 4 -2 9 3 13 11 3 8 -2 18 -11 23 -14 8
-13 10 1 15 11 4 15 3 10 -4 -4 -8 1 -9 16 -4 17 5 21 4 15 -6 -6 -11 -5 -11
4 -3 7 7 11 19 9 27 -3 14 -8 14 -48 0 -25 -8 -47 -19 -50 -23 -3 -4 -14 -10
-25 -12 -11 -1 -22 -5 -25 -8 -23 -23 -70 -48 -75 -40 -4 6 -11 8 -16 4 -5 -3
-7 -8 -5 -12 2 -4 -9 -8 -26 -8 -17 -1 -33 -6 -37 -12 -8 -13 -61 -27 -61 -16
0 10 48 34 67 34 7 0 13 7 13 15 0 8 -6 15 -14 15 -23 0 -77 -26 -69 -34 4 -4
-4 -3 -17 2 -19 7 -28 5 -37 -7 -11 -14 -12 -14 -13 4 0 12 -3 16 -8 9 -4 -6
-33 -23 -64 -37 -31 -15 -60 -32 -63 -37 -8 -13 8 -13 21 -1 5 6 31 19 58 31
37 15 46 17 36 5 -7 -8 -18 -15 -24 -15 -6 0 -22 -6 -36 -14 -152 -84 -189
-102 -183 -93 4 7 8 17 8 22 0 12 247 155 258 148 4 -2 20 4 35 14 48 32 67
43 82 49 8 4 33 14 55 24 83 37 211 88 235 95 41 11 240 89 236 92 -11 12
-541 -191 -570 -218 -6 -5 -16 -9 -23 -9 -23 0 -284 -156 -348 -207 -32 -26
-109 -97 -169 -158 -61 -60 -104 -101 -96 -90 8 11 31 36 51 57 28 28 34 39
25 49 -8 9 -8 10 2 5 6 -4 19 0 28 8 8 9 13 17 10 17 -3 1 -10 2 -15 3 -5 0
-12 4 -15 9 -3 4 -3 5 0 3 3 -3 17 8 31 25 14 16 30 29 36 29 7 0 0 -10 -14
-23 -14 -12 -24 -28 -22 -35 6 -16 64 54 159 193 110 160 142 205 186 258 21
26 36 47 32 47 -8 0 -10 -3 -88 -104 -50 -65 -61 -75 -75 -64 -13 10 -14 10
-3 -2 6 -8 12 -17 12 -21 0 -4 -6 -14 -12 -21 -7 -8 -18 -23 -24 -33 -6 -11
-16 -20 -23 -20 -15 0 -30 -25 -24 -41 2 -6 -1 -15 -8 -20 -7 -4 -10 -3 -5 4
3 6 2 13 -4 17 -5 3 -10 -1 -10 -9 0 -9 -4 -16 -10 -16 -5 0 -10 -7 -10 -16 0
-14 2 -15 17 -3 9 8 7 0 -7 -18 -27 -37 -36 -43 -20 -14 6 12 6 22 1 26 -12 7
-23 -27 -16 -48 4 -8 1 -18 -6 -23 -9 -5 -10 -2 -6 9 3 9 1 19 -5 23 -7 5 -9
-1 -6 -17 3 -20 0 -24 -19 -24 -20 0 -21 2 -8 11 8 6 15 15 15 19 0 5 7 17 16
27 14 14 14 21 4 32 -10 13 -8 15 9 11 15 -3 26 5 38 26 10 16 21 29 26 29 4
0 3 9 -3 19 -5 11 -10 28 -9 38 0 10 3 13 6 6 6 -15 33 -17 33 -3 0 6 -4 10
-10 10 -5 0 -10 7 -10 15 0 8 4 15 10 15 5 0 9 5 7 12 -2 12 61 30 75 22 4 -3
5 2 2 11 -5 12 -9 13 -20 4 -9 -8 -14 -8 -14 -1 0 6 5 14 10 17 19 12 10 22
-17 18 -27 -3 -27 -3 -4 7 18 8 22 15 17 33 -3 12 -6 26 -6 30 0 5 -12 7 -27
5 -16 -2 -27 -7 -26 -13 0 -5 -9 -17 -20 -26 -20 -15 -23 -15 -39 0 -16 16
-16 17 2 17 10 0 16 -5 13 -10 -3 -5 -1 -6 5 -2 9 5 9 13 1 28 -9 17 -7 24 10
41 12 12 21 16 21 10 0 -6 -7 -13 -15 -17 -8 -3 -15 -11 -15 -18 0 -9 3 -9 11
-1 6 6 18 9 27 6 11 -5 13 -2 7 6 -6 10 -3 11 13 2 15 -8 23 -8 28 1 5 7 3 8
-6 3 -10 -6 -12 -4 -7 8 3 9 0 23 -8 31 -13 12 -13 15 0 20 9 3 14 9 13 13 -2
4 0 9 5 11 18 6 19 1 2 -18 -11 -12 -13 -20 -6 -20 7 0 10 -4 7 -9 -3 -5 4
-11 17 -15 38 -10 43 -6 17 14 -19 14 -22 22 -13 31 6 6 9 18 6 26 -5 12 -1
14 18 8 23 -7 24 -7 4 9 -16 12 -17 15 -4 16 8 0 21 -6 28 -12 11 -11 12 -9 7
8 -7 24 10 36 42 27 11 -2 22 -1 25 4 3 5 -10 8 -28 8 -19 -1 -32 2 -29 7 3 5
15 6 26 2 14 -4 18 -2 14 5 -4 6 -1 11 8 11 9 0 13 8 12 24 -2 19 7 31 42 56
24 17 46 29 49 26 3 -2 -5 -10 -17 -16 -18 -10 -20 -14 -9 -22 11 -8 10 -8 -4
-4 -21 7 -64 -18 -48 -28 13 -9 77 29 73 43 -1 6 4 14 12 17 8 3 13 11 10 19
-3 7 2 15 10 18 9 4 16 1 16 -6 0 -7 3 -8 8 -2 4 6 19 16 35 24 17 9 23 17 16
22 -8 5 -5 10 8 18 11 5 23 8 26 4 4 -3 13 -1 20 5 8 7 18 8 22 4 5 -4 5 -1 0
6 -5 10 -10 11 -18 3 -6 -6 -16 -11 -21 -11 -6 1 0 9 13 20 12 11 27 17 32 14
5 -3 8 0 7 7 -2 6 3 14 11 17 8 2 11 0 7 -6 -3 -6 -2 -14 4 -17 6 -4 10 -3 9
2 -1 4 0 11 1 16 1 4 3 11 4 17 0 5 15 20 32 32 55 40 198 152 213 166 8 8 48
39 88 69 63 48 81 64 71 63 -2 0 -23 -15 -48 -32z m-491 -402 c-2 -2 -15 -9
-29 -15 -24 -11 -24 -11 -6 3 16 13 49 24 35 12z m-445 -372 c3 -8 2 -12 -4
-9 -6 3 -10 10 -10 16 0 14 7 11 14 -7z m-29 -28 c0 -13 -4 -28 -8 -32 -4 -5
-5 -1 -1 9 5 13 2 16 -10 11 -22 -8 -20 -20 6 -38 12 -9 18 -16 14 -16 -5 0
-18 7 -28 16 -16 16 -19 15 -37 -7 -11 -13 -20 -21 -21 -16 0 6 79 97 84 97 1
0 2 -11 1 -24z m145 -16 c0 -5 -7 -7 -15 -4 -8 4 -15 8 -15 10 0 2 7 4 15 4 8
0 15 -4 15 -10z m-60 -24 c0 -3 -4 -8 -10 -11 -5 -3 -10 -1 -10 4 0 6 5 11 10
11 6 0 10 -2 10 -4z m50 -36 c0 -5 -6 -10 -14 -10 -8 0 -18 5 -21 10 -3 6 3
10 14 10 12 0 21 -4 21 -10z m-230 -21 c0 -5 -4 -7 -10 -4 -5 3 -10 2 -10 -4
0 -5 3 -11 8 -14 4 -2 2 -2 -5 -1 -7 2 -23 -15 -36 -36 -13 -22 -27 -37 -32
-33 -4 5 -5 0 -2 -9 4 -11 2 -17 -5 -15 -7 1 -12 -6 -13 -15 0 -18 -20 -26
-20 -8 0 13 107 150 117 150 5 0 8 -5 8 -11z m173 -23 c-3 -4 -9 -2 -14 5 -13
22 -11 31 5 17 8 -7 12 -17 9 -22z m-193 -73 c-11 -17 -11 -17 -6 0 3 10 6 24
7 30 0 9 2 9 5 0 3 -7 0 -20 -6 -30z m780 -13 c-8 -5 -19 -10 -25 -10 -5 0 -3
5 5 10 8 5 20 10 25 10 6 0 3 -5 -5 -10z m-559 -43 c-10 -9 -11 -8 -5 6 3 10
9 15 12 12 3 -3 0 -11 -7 -18z m-291 -17 c0 -5 -5 -10 -11 -10 -5 0 -7 5 -4
10 3 6 8 10 11 10 2 0 4 -4 4 -10z m510 -24 c0 -2 -7 -7 -16 -10 -8 -3 -12 -2
-9 4 6 10 25 14 25 6z m288 -21 c-20 -14 -40 -25 -45 -25 -11 0 60 49 72 50 5
0 -7 -11 -27 -25z m-248 5 c0 -5 -4 -10 -10 -10 -5 0 -10 5 -10 10 0 6 5 10
10 10 6 0 10 -4 10 -10z m160 -65 c0 -2 -10 -9 -22 -15 -22 -11 -22 -10 -4 4
21 17 26 19 26 11z m-803 -37 c-3 -8 -6 -5 -6 6 -1 11 2 17 5 13 3 -3 4 -12 1
-19z m883 -2 c0 -2 -8 -10 -17 -17 -16 -13 -17 -12 -4 4 13 16 21 21 21 13z
m-919 -29 c-10 -9 -11 -8 -5 6 3 10 9 15 12 12 3 -3 0 -11 -7 -18z m969 -42
c0 -2 -9 -9 -19 -15 -14 -7 -22 -7 -27 2 -4 6 -3 8 2 5 6 -3 16 -2 24 4 17 10
20 11 20 4z m-673 -28 c-4 -13 -37 -18 -37 -5 0 6 7 7 16 4 12 -5 15 -2 10 9
-3 10 -2 13 5 10 5 -4 8 -12 6 -18z m593 -2 c-14 -8 -29 -14 -35 -14 -5 0 1 6
15 14 14 8 30 14 35 14 6 0 -1 -6 -15 -14z m-937 -8 c4 3 7 1 7 -5 0 -17 -16
-15 -31 6 -12 15 -12 16 2 5 9 -7 19 -10 22 -6z m1367 -37 c0 -5 -5 -10 -11
-10 -5 0 -7 5 -4 10 3 6 8 10 11 10 2 0 4 -4 4 -10z m-1380 -35 c0 -5 -5 -3
-10 5 -5 8 -10 20 -10 25 0 6 5 3 10 -5 5 -8 10 -19 10 -25z m-78 -34 c-17
-27 -28 -52 -24 -57 4 -4 1 -4 -6 0 -10 6 -8 15 8 39 12 18 26 42 32 55 6 12
13 20 16 18 2 -3 -9 -27 -26 -55z m348 33 c-8 -8 -23 -20 -34 -25 -13 -6 -10
0 9 15 34 29 43 33 25 10z m207 10 c-3 -3 -12 -4 -19 -1 -8 3 -5 6 6 6 11 1
17 -2 13 -5z m-38 -8 c-10 -9 -89 -46 -89 -41 0 6 72 44 84 45 5 0 7 -2 5 -4z
m841 -6 c-8 -5 -19 -10 -25 -10 -5 0 -3 5 5 10 8 5 20 10 25 10 6 0 3 -5 -5
-10z m-1339 -53 c-10 -9 -11 -8 -5 6 3 10 9 15 12 12 3 -3 0 -11 -7 -18z m378
-10 c-13 -13 -26 -22 -28 -20 -7 5 31 43 42 43 6 0 -1 -10 -14 -23z m-389 -11
c0 -3 -4 -8 -10 -11 -5 -3 -10 -1 -10 4 0 6 5 11 10 11 6 0 10 -2 10 -4z m935
-16 c-27 -12 -43 -12 -25 0 8 5 22 9 30 9 10 0 8 -3 -5 -9z m-760 -40 c-3 -5
-12 -10 -18 -10 -7 0 -6 4 3 10 19 12 23 12 15 0z m195 0 c0 -5 -8 -10 -17
-10 -15 0 -16 2 -3 10 19 12 20 12 20 0z m440 0 c-8 -5 -19 -10 -25 -10 -5 0
-3 5 5 10 8 5 20 10 25 10 6 0 3 -5 -5 -10z m255 -9 c-6 -5 -23 -12 -40 -15
-28 -6 -28 -5 5 8 43 18 46 18 35 7z m-115 -11 c-8 -5 -19 -10 -25 -10 -5 0
-3 5 5 10 8 5 20 10 25 10 6 0 3 -5 -5 -10z m-820 -14 c0 -2 -8 -10 -17 -17
-16 -13 -17 -12 -4 4 13 16 21 21 21 13z m167 -28 c-3 -8 -6 -5 -6 6 -1 11 2
17 5 13 3 -3 4 -12 1 -19z m-212 -7 c-7 -12 -97 -62 -102 -58 -4 5 42 38 77
54 32 15 32 15 25 4z m-165 -11 c0 -5 -4 -10 -10 -10 -5 0 -10 5 -10 10 0 6 5
10 10 10 6 0 10 -4 10 -10z m490 -40 c-19 -4 -53 -10 -75 -13 -36 -5 -38 -5
-17 7 12 6 21 14 18 17 -2 2 21 2 52 0 53 -4 55 -5 22 -11z m621 9 c-16 -6
-28 -6 -35 1 -7 7 1 10 25 9 32 0 33 -1 10 -10z m-91 -26 c0 -2 -8 -3 -17 -1
-12 2 -17 -3 -15 -14 2 -12 -4 -18 -16 -18 -20 0 -65 29 -45 30 6 0 15 -4 18
-10 3 -5 14 -10 23 -10 13 0 13 2 -4 15 -14 11 -15 14 -3 9 10 -3 20 -1 23 5
6 9 36 5 36 -6z m-417 -10 c-7 -2 -19 -2 -25 0 -7 3 -2 5 12 5 14 0 19 -2 13
-5z m-166 -9 c-3 -3 -12 -4 -19 -1 -8 3 -5 6 6 6 11 1 17 -2 13 -5z m60 -10
c-3 -3 -12 -4 -19 -1 -8 3 -5 6 6 6 11 1 17 -2 13 -5z m159 -1 c-11 -11 -48
-14 -41 -3 3 5 16 10 27 10 12 0 18 -3 14 -7z m-73 -10 c-7 -2 -21 -2 -30 0
-10 3 -4 5 12 5 17 0 24 -2 18 -5z m277 -33 c0 -5 -8 -10 -17 -10 -15 0 -16 2
-3 10 19 12 20 12 20 0z m-970 -24 c0 -3 -4 -8 -10 -11 -5 -3 -10 -1 -10 4 0
6 5 11 10 11 6 0 10 -2 10 -4z m-50 -30 c0 -3 -4 -8 -10 -11 -5 -3 -10 -1 -10
4 0 6 5 11 10 11 6 0 10 -2 10 -4z m805 -36 c-3 -5 -12 -10 -18 -10 -7 0 -6 4
3 10 19 12 23 12 15 0z m-685 -20 c0 -5 -5 -10 -11 -10 -5 0 -7 5 -4 10 3 6 8
10 11 10 2 0 4 -4 4 -10z m640 0 c-8 -5 -26 -9 -40 -9 l-25 1 25 8 c14 4 32 8
40 9 13 1 13 0 0 -9z m-66 -19 c6 -9 -44 -35 -52 -26 -3 3 -13 -2 -23 -11 -16
-15 -17 -14 -12 5 3 14 13 21 29 21 12 0 26 5 29 10 8 12 22 13 29 1z m-207
-47 c-3 -3 -12 -4 -19 -1 -8 3 -5 6 6 6 11 1 17 -2 13 -5z m162 -78 c-19 -9
-57 18 -40 28 5 3 11 -1 15 -9 3 -8 11 -15 18 -15 9 0 9 3 0 12 -20 20 -14 30
6 11 17 -17 17 -18 1 -27z m-24 -36 c3 -5 1 -10 -4 -10 -6 0 -11 5 -11 10 0 6
2 10 4 10 3 0 8 -4 11 -10z"/>
<path d="M5182 5885 c-17 -37 -14 -45 4 -12 9 16 14 31 11 33 -2 2 -9 -7 -15
-21z"/>
<path d="M6070 5748 c-82 -113 -278 -320 -293 -311 -6 4 -7 1 -2 -6 4 -8 -3
-23 -21 -40 -16 -15 -41 -43 -56 -62 -89 -114 -121 -149 -130 -143 -7 4 -8 2
-4 -5 4 -6 2 -20 -4 -29 -24 -33 53 55 128 147 42 51 114 132 160 180 94 96
267 301 254 301 -5 0 -19 -15 -32 -32z"/>
<path d="M2796 5626 c3 -8 13 -17 22 -21 13 -5 13 -2 -3 15 -21 24 -26 25 -19
6z"/>
<path d="M2850 5576 c0 -2 7 -7 16 -10 8 -3 12 -2 9 4 -6 10 -25 14 -25 6z"/>
<path d="M5720 5496 c0 -2 7 -7 16 -10 8 -3 12 -2 9 4 -6 10 -25 14 -25 6z"/>
<path d="M6612 5328 c-47 -21 -53 -35 -7 -18 30 12 75 40 60 39 -6 0 -30 -10
-53 -21z"/>
<path d="M6529 5282 c-19 -15 -111 -55 -219 -96 -8 -4 -1 -4 15 0 17 3 41 7
53 8 13 1 27 7 30 12 9 13 91 48 97 42 3 -2 -27 -30 -65 -62 -65 -54 -77 -66
-66 -66 2 0 35 26 73 58 38 31 85 69 104 84 19 15 25 25 15 21 -13 -4 -17 -3
-12 5 10 17 2 15 -25 -6z m11 -17 c-7 -8 -18 -15 -24 -15 -6 0 -2 7 8 15 25
19 32 19 16 0z"/>
<path d="M5530 5280 c-13 -9 -13 -10 0 -10 8 0 22 5 30 10 13 9 13 10 0 10 -8
0 -22 -5 -30 -10z"/>
<path d="M5421 5216 c-11 -13 -10 -17 3 -22 22 -8 30 1 19 21 -9 15 -11 15
-22 1z"/>
<path d="M6422 5135 c-29 -20 -50 -39 -48 -44 6 -9 -85 -87 -96 -83 -5 1 -7
-1 -5 -6 3 -12 -41 -55 -51 -48 -10 6 -75 -57 -67 -66 3 -3 -10 -17 -30 -32
-20 -15 -44 -37 -55 -48 -11 -12 -24 -17 -31 -13 -7 5 -10 4 -6 -2 9 -14 -41
-55 -56 -47 -7 4 -9 3 -4 -1 4 -5 -3 -20 -15 -34 -27 -30 45 25 147 114 107
92 283 259 281 267 0 4 20 21 47 37 26 17 47 33 47 36 0 8 -3 7 -58 -30z
m-203 -197 c-2 -2 -17 -14 -34 -28 l-30 -25 29 32 c16 18 32 31 34 28 3 -3 3
-6 1 -7z"/>
<path d="M5427 5133 c-4 -6 3 -19 16 -29 12 -11 17 -12 11 -4 -6 8 -13 22 -16
30 -3 9 -7 10 -11 3z"/>
<path d="M5371 5103 c7 -10 14 -20 16 -22 1 -1 7 0 13 4 14 9 -6 35 -27 35
-13 0 -13 -3 -2 -17z"/>
<path d="M6329 5093 c-13 -16 -12 -17 4 -4 16 13 21 21 13 21 -2 0 -10 -8 -17
-17z"/>
<path d="M5444 5060 c0 -13 4 -16 10 -10 7 7 7 13 0 20 -6 6 -10 3 -10 -10z"/>
<path d="M6273 5038 c-18 -17 -25 -19 -37 -9 -11 9 -16 9 -22 0 -4 -7 -3 -9 4
-5 6 3 13 2 16 -3 3 -5 -15 -28 -40 -51 -25 -23 -44 -43 -42 -45 2 -2 37 27
78 65 41 38 73 69 70 70 -3 0 -15 -10 -27 -22z"/>
<path d="M6164 5028 c-3 -5 -2 -8 3 -7 22 4 25 -3 7 -17 -18 -15 -18 -15 0 -6
23 12 30 39 9 39 -7 0 -16 -4 -19 -9z"/>
<path d="M5840 4985 c-25 -13 -42 -24 -39 -25 10 0 99 40 99 45 0 9 -15 4 -60
-20z"/>
<path d="M6075 5000 c-3 -6 1 -7 9 -4 18 7 21 14 7 14 -6 0 -13 -4 -16 -10z"/>
<path d="M5920 4982 c0 -6 -6 -9 -12 -7 -7 3 -20 1 -28 -5 -12 -7 -12 -12 -2
-22 9 -9 12 -9 12 5 0 19 20 24 20 5 0 -7 5 -5 11 5 6 10 8 21 5 24 -3 4 -6 1
-6 -5z"/>
<path d="M5330 4939 c0 -5 5 -7 10 -4 6 3 10 8 10 11 0 2 -4 4 -10 4 -5 0 -10
-5 -10 -11z"/>
<path d="M5720 4932 c-13 -14 -12 -15 4 -9 12 5 25 2 36 -8 16 -14 18 -14 24
0 4 11 2 15 -6 12 -7 -2 -20 1 -28 8 -12 11 -18 10 -30 -3z"/>
<path d="M5820 4934 c0 -8 5 -12 10 -9 6 4 8 11 5 16 -9 14 -15 11 -15 -7z"/>
<path d="M5847 4926 c-4 -10 -1 -13 9 -9 7 3 14 9 14 14 0 14 -17 10 -23 -5z"/>
<path d="M6075 4907 c-16 -12 -36 -30 -43 -40 -7 -9 -18 -14 -24 -11 -7 4 -8
2 -4 -5 5 -7 23 3 57 31 42 36 56 50 47 47 -2 0 -16 -10 -33 -22z"/>
<path d="M5664 4905 c-18 -14 -18 -14 4 -8 12 3 22 9 22 14 0 12 -3 11 -26 -6z"/>
<path d="M5930 4870 c-9 -6 -10 -10 -3 -10 6 0 15 5 18 10 8 12 4 12 -15 0z"/>
<path d="M5895 4850 c-3 -5 1 -10 10 -10 9 0 13 5 10 10 -3 6 -8 10 -10 10 -2
0 -7 -4 -10 -10z"/>
<path d="M5969 4833 c-1 -5 -1 -12 0 -17 1 -5 -5 -6 -13 -3 -9 4 -15 3 -15 -1
4 -26 -3 -34 -26 -28 -27 7 -35 -8 -9 -18 17 -6 96 53 88 66 -7 10 -24 10 -25
1z"/>
<path d="M5915 4800 c-3 -5 -1 -10 4 -10 6 0 11 5 11 10 0 6 -2 10 -4 10 -3 0
-8 -4 -11 -10z"/>
<path d="M5400 4770 c-25 -16 -40 -30 -35 -30 6 0 26 10 45 22 19 12 38 22 42
23 13 1 21 15 7 14 -8 0 -34 -13 -59 -29z"/>
<path d="M6458 4764 c-38 -20 -36 -28 2 -9 17 9 30 18 30 20 0 7 -1 6 -32 -11z"/>
<path d="M3480 4756 c0 -2 8 -10 18 -17 15 -13 16 -12 3 4 -13 16 -21 21 -21
13z"/>
<path d="M5906 4675 c-11 -8 -17 -17 -14 -20 2 -3 13 4 23 15 21 23 18 25 -9
5z"/>
<path d="M6283 4662 c-61 -40 -66 -50 -8 -17 55 30 75 45 60 44 -6 0 -29 -12
-52 -27z"/>
<path d="M6695 4644 c-38 -7 -95 -17 -125 -20 -30 -4 -59 -13 -65 -20 -5 -7
-52 -24 -104 -36 -52 -13 -96 -28 -98 -35 -3 -9 3 -9 24 -3 81 26 143 42 293
76 91 20 173 36 182 36 10 0 20 3 23 9 8 12 -46 10 -130 -7z"/>
<path d="M6361 4589 c-58 -10 -110 -24 -115 -30 -8 -8 -5 -9 13 -4 16 5 21 4
17 -4 -4 -6 -2 -11 4 -11 6 0 13 6 16 14 3 8 28 16 64 20 60 7 161 34 125 34
-11 0 -67 -9 -124 -19z"/>
<path d="M3550 4586 c0 -2 8 -10 18 -17 15 -13 16 -12 3 4 -13 16 -21 21 -21
13z"/>
<path d="M6678 4576 c-26 -7 -50 -11 -53 -10 -3 2 -2 0 3 -6 4 -6 30 -2 67 9
68 22 55 26 -17 7z"/>
<path d="M3640 4523 c0 -7 4 -22 10 -35 5 -13 17 -49 26 -81 9 -32 18 -56 21
-54 5 6 -23 106 -43 151 -7 17 -13 26 -14 19z"/>
<path d="M5728 4513 c6 -2 18 -2 25 0 6 3 1 5 -13 5 -14 0 -19 -2 -12 -5z"/>
<path d="M3527 4483 c-8 -8 25 -33 35 -26 5 2 2 11 -6 19 -16 16 -20 17 -29 7z"/>
<path d="M6208 4436 c-32 -13 -59 -22 -61 -20 -2 2 -4 -3 -4 -11 0 -8 4 -15 9
-15 4 0 8 4 8 9 0 13 60 32 74 24 6 -3 8 -2 3 2 -4 5 5 14 20 21 51 22 9 14
-49 -10z"/>
<path d="M6078 4393 c7 -3 16 -2 19 1 4 3 -2 6 -13 5 -11 0 -14 -3 -6 -6z"/>
<path d="M4579 4233 c-13 -16 -12 -17 4 -4 9 7 17 15 17 17 0 8 -8 3 -21 -13z"/>
<path d="M4617 4243 c-4 -3 -2 -12 4 -20 7 -8 8 -13 1 -13 -5 0 -13 -7 -16
-16 -4 -11 1 -10 20 5 19 15 30 18 39 11 9 -8 14 -6 18 4 8 20 -10 31 -28 16
-15 -13 -39 -4 -30 11 7 10 1 12 -8 2z"/>
<path d="M5408 4213 c-10 -2 -18 -9 -18 -13 0 -6 10 -6 23 -1 12 4 29 6 37 4
13 -4 13 -3 0 6 -8 6 -17 10 -20 10 -3 -1 -13 -3 -22 -6z"/>
<path d="M3600 4191 c0 -6 4 -13 10 -16 6 -3 7 1 4 9 -7 18 -14 21 -14 7z"/>
<path d="M4588 4083 c7 -3 16 -2 19 1 4 3 -2 6 -13 5 -11 0 -14 -3 -6 -6z"/>
<path d="M4399 4023 l-34 -38 38 34 c20 19 37 36 37 38 0 8 -8 0 -41 -34z"/>
<path d="M4530 4020 c-13 -8 -13 -10 2 -10 9 0 20 5 23 10 8 13 -5 13 -25 0z"/>
<path d="M5298 3983 c7 -3 16 -2 19 1 4 3 -2 6 -13 5 -11 0 -14 -3 -6 -6z"/>
<path d="M5708 3863 c6 -2 18 -2 25 0 6 3 1 5 -13 5 -14 0 -19 -2 -12 -5z"/>
<path d="M4781 3839 c-30 -11 -74 -21 -98 -22 -24 -1 -41 -6 -39 -12 2 -5 10
-8 17 -6 8 2 32 4 54 5 35 2 135 40 135 52 0 6 -11 4 -69 -17z"/>
<path d="M5768 3853 c6 -2 18 -2 25 0 6 3 1 5 -13 5 -14 0 -19 -2 -12 -5z"/>
<path d="M5598 3843 c7 -3 16 -2 19 1 4 3 -2 6 -13 5 -11 0 -14 -3 -6 -6z"/>
<path d="M5856 3841 c-4 -5 -46 -8 -96 -6 -55 1 -96 -2 -105 -9 -11 -8 46 -12
226 -13 133 -2 244 -5 247 -8 3 -3 -98 -6 -224 -7 l-229 -3 184 -2 c121 -2
189 -7 199 -15 10 -9 15 -9 22 2 7 11 14 12 35 2 15 -7 24 -8 20 -2 -4 6 13
10 45 10 28 0 49 -4 46 -9 -7 -11 17 -21 51 -21 16 0 27 7 30 20 5 20 27 27
37 12 7 -11 66 -3 66 9 0 5 -7 5 -17 2 -11 -4 -14 -3 -9 6 6 10 -8 12 -60 11
-38 -1 -93 3 -123 10 -29 6 -97 10 -151 8 -54 -2 -96 0 -93 5 2 4 -3 7 -11 7
-9 0 -16 -4 -16 -10 0 -5 -12 -10 -27 -9 l-28 1 25 8 c24 8 24 8 -7 9 -17 1
-34 -3 -37 -8z m376 -30 c18 -7 14 -9 -24 -8 -25 1 -44 5 -42 9 2 4 -10 9 -28
11 -18 2 -10 3 19 1 28 -2 62 -8 75 -13z m138 -5 c0 -11 -19 -15 -25 -6 -3 5
1 10 9 10 9 0 16 -2 16 -4z m-73 -23 c2 -5 -11 -10 -29 -11 -31 -1 -32 0 -13
14 20 15 37 14 42 -3z"/>
<path d="M5349 3828 c10 -14 11 -18 1 -18 -10 0 -10 -3 0 -15 8 -10 17 -12 24
-6 6 5 29 11 51 14 l40 4 -44 1 c-26 1 -53 9 -65 20 -20 16 -20 16 -7 0z"/>
<path d="M5525 3820 l-20 -9 20 0 c11 0 29 4 40 9 l20 9 -20 0 c-11 0 -29 -4
-40 -9z"/>
<path d="M4808 3813 c7 -3 16 -2 19 1 4 3 -2 6 -13 5 -11 0 -14 -3 -6 -6z"/>
<path d="M5608 3813 c7 -3 16 -2 19 1 4 3 -2 6 -13 5 -11 0 -14 -3 -6 -6z"/>
<path d="M4893 3803 c15 -2 37 -2 50 0 12 2 0 4 -28 4 -27 0 -38 -2 -22 -4z"/>
<path d="M6431 3802 c-6 -2 -8 -9 -5 -16 3 -9 -4 -11 -26 -8 -18 3 -30 0 -30
-7 0 -9 51 -11 193 -7 105 3 242 5 302 6 94 2 104 3 70 12 -22 5 -71 7 -110 4
-44 -3 -63 -2 -50 4 13 6 -16 10 -90 11 -159 4 -244 4 -254 1z m266 -18 c-3
-3 -12 -4 -19 -1 -8 3 -5 6 6 6 11 1 17 -2 13 -5z"/>
<path d="M5078 3793 c12 -2 32 -2 45 0 12 2 2 4 -23 4 -25 0 -35 -2 -22 -4z"/>
<path d="M5258 3795 c-3 -3 -47 -8 -99 -11 -128 -9 -129 -18 -1 -12 95 5 123
10 110 23 -2 3 -7 3 -10 0z"/>
<path d="M5289 3783 c-13 -15 -12 -15 6 -6 11 6 26 8 34 5 8 -3 11 0 7 7 -10
16 -31 14 -47 -6z"/>
<path d="M5558 3793 c6 -2 18 -2 25 0 6 3 1 5 -13 5 -14 0 -19 -2 -12 -5z"/>
<path d="M4710 3773 c-14 -2 -41 -6 -60 -10 l-35 -6 40 -7 c28 -5 46 -3 60 6
21 15 39 19 32 7 -3 -5 12 -9 34 -10 21 -1 65 -11 97 -22 33 -11 79 -23 103
-25 l44 -6 -45 11 c-25 6 -47 14 -50 19 -3 4 -39 15 -80 24 -94 22 -109 24
-140 19z"/>
<path d="M5087 3744 c-4 -4 -4 -11 -1 -15 7 -11 94 -12 94 -1 0 4 -16 6 -36 4
-21 -3 -39 0 -43 7 -4 6 -10 8 -14 5z"/>
<path d="M6228 3743 c6 -2 18 -2 25 0 6 3 1 5 -13 5 -14 0 -19 -2 -12 -5z"/>
<path d="M4590 3730 c0 -5 7 -7 15 -4 8 4 15 8 15 10 0 2 -7 4 -15 4 -8 0 -15
-4 -15 -10z"/>
<path d="M4629 3719 c-13 -12 -17 -19 -9 -15 8 3 23 9 33 12 9 4 17 10 17 15
0 15 -16 10 -41 -12z"/>
<path d="M4978 3733 c12 -2 32 -2 45 0 12 2 2 4 -23 4 -25 0 -35 -2 -22 -4z"/>
<path d="M4227 3704 c15 -24 31 -35 17 -12 -5 8 -2 9 9 5 10 -3 17 -3 17 1 0
4 -13 13 -30 19 -29 11 -29 11 -13 -13z"/>
<path d="M4808 3723 c6 -2 18 -2 25 0 6 3 1 5 -13 5 -14 0 -19 -2 -12 -5z"/>
<path d="M5233 3713 c26 -2 68 -2 95 0 26 2 4 3 -48 3 -52 0 -74 -1 -47 -3z"/>
<path d="M4858 3693 c7 -3 16 -2 19 1 4 3 -2 6 -13 5 -11 0 -14 -3 -6 -6z"/>
<path d="M5050 3690 c14 -4 39 -8 55 -8 l30 0 -30 8 c-16 4 -41 8 -55 8 l-25
0 25 -8z"/>
<path d="M5153 3673 c9 -2 25 -2 35 0 9 3 1 5 -18 5 -19 0 -27 -2 -17 -5z"/>
<path d="M5218 3663 c6 -2 18 -2 25 0 6 3 1 5 -13 5 -14 0 -19 -2 -12 -5z"/>
<path d="M4862 3640 c0 -14 2 -19 5 -12 2 6 2 18 0 25 -3 6 -5 1 -5 -13z"/>
<path d="M5088 3653 c6 -2 18 -2 25 0 6 3 1 5 -13 5 -14 0 -19 -2 -12 -5z"/>
<path d="M5268 3653 c6 -2 18 -2 25 0 6 3 1 5 -13 5 -14 0 -19 -2 -12 -5z"/>
<path d="M4880 3643 c0 -12 56 -23 117 -23 24 0 43 -5 46 -12 4 -10 6 -10 6 0
1 8 9 10 27 6 17 -4 25 -3 21 3 -4 6 -41 13 -83 17 -42 4 -90 10 -106 13 -16
3 -28 1 -28 -4z"/>
<path d="M5343 3643 c9 -2 25 -2 35 0 9 3 1 5 -18 5 -19 0 -27 -2 -17 -5z"/>
<path d="M5124 3625 c11 -8 26 -15 33 -15 22 0 14 8 -19 19 -30 10 -31 9 -14
-4z"/>
<path d="M5445 3631 c91 -16 135 -19 135 -10 0 5 -13 9 -29 9 -15 0 -57 2 -92
5 -61 4 -62 4 -14 -4z"/>
<path d="M6808 3633 c7 -3 16 -2 19 1 4 3 -2 6 -13 5 -11 0 -14 -3 -6 -6z"/>
<path d="M6888 3633 c7 -3 16 -2 19 1 4 3 -2 6 -13 5 -11 0 -14 -3 -6 -6z"/>
<path d="M4299 3609 c13 -11 26 -17 29 -14 7 6 -29 34 -43 34 -5 0 1 -9 14
-20z"/>
<path d="M6360 3622 c0 -6 -8 -13 -17 -15 -10 -3 23 -4 72 -4 64 1 73 2 30 4
-32 2 -65 9 -72 15 -9 7 -13 7 -13 0z"/>
<path d="M4460 3605 c14 -8 30 -14 35 -14 6 0 -1 6 -15 14 -14 8 -29 14 -35
14 -5 0 1 -6 15 -14z"/>
<path d="M4896 3595 c13 -21 24 -25 63 -25 25 0 69 -2 96 -4 41 -3 44 -2 15 4
-23 5 -27 8 -13 9 12 0 25 6 29 13 5 8 0 9 -17 3 -44 -14 -111 -17 -122 -6 -6
6 -19 11 -30 11 -10 0 -15 5 -12 10 3 6 -1 10 -10 10 -14 0 -14 -2 1 -25z"/>
<path d="M5648 3613 c28 -2 76 -2 105 0 28 2 5 3 -53 3 -58 0 -81 -1 -52 -3z"/>
<path d="M6063 3613 c37 -2 97 -2 135 0 37 2 6 3 -68 3 -74 0 -105 -1 -67 -3z"/>
<path d="M6648 3613 c6 -2 18 -2 25 0 6 3 1 5 -13 5 -14 0 -19 -2 -12 -5z"/>
<path d="M4810 3598 c0 -4 9 -8 20 -8 11 0 20 4 20 8 0 4 -9 8 -20 8 -11 0
-20 -4 -20 -8z"/>
<path d="M5110 3600 c-13 -8 -12 -10 3 -10 9 0 17 5 17 10 0 12 -1 12 -20 0z"/>
<path d="M5256 3602 c-7 -12 57 -33 92 -30 43 3 32 10 -19 12 -24 2 -45 8 -47
14 -4 14 -18 16 -26 4z"/>
<path d="M5718 3602 c-109 -1 -198 -6 -198 -10 0 -6 226 -6 380 1 127 5 0 12
-182 9z"/>
<path d="M4349 3586 c8 -9 28 -27 45 -38 l31 -22 -25 28 c-14 15 -34 33 -45
39 -18 9 -19 9 -6 -7z"/>
<path d="M4973 3593 c9 -2 25 -2 35 0 9 3 1 5 -18 5 -19 0 -27 -2 -17 -5z"/>
<path d="M5390 3585 c0 -8 4 -15 10 -15 5 0 7 7 4 15 -4 8 -8 15 -10 15 -2 0
-4 -7 -4 -15z"/>
<path d="M5455 3590 c-3 -5 1 -10 10 -10 9 0 13 5 10 10 -3 6 -8 10 -10 10 -2
0 -7 -4 -10 -10z"/>
<path d="M6030 3589 c-260 -18 -353 -26 -307 -28 46 -1 503 26 557 33 51 6
-129 3 -250 -5z"/>
<path d="M4860 3580 c0 -5 5 -10 10 -10 6 0 10 5 10 10 0 6 -4 10 -10 10 -5 0
-10 -4 -10 -10z"/>
<path d="M5168 3583 c6 -2 18 -2 25 0 6 3 1 5 -13 5 -14 0 -19 -2 -12 -5z"/>
<path d="M4310 3571 c0 -5 4 -11 8 -13 4 -1 40 -55 80 -118 39 -63 101 -160
136 -215 36 -55 83 -135 106 -177 22 -43 42 -78 45 -78 11 0 -56 125 -134 248
-48 75 -117 185 -155 244 -65 104 -86 130 -86 109z"/>
<path d="M4415 3560 c11 -14 21 -27 23 -30 2 -3 9 3 17 13 11 16 13 16 19 2 3
-9 2 -13 -4 -10 -6 3 -13 0 -16 -9 -3 -9 -12 -12 -22 -8 -14 5 -15 4 -2 -10
12 -13 17 -13 28 -1 19 19 24 16 12 -7 -6 -11 -7 -19 -3 -18 4 2 42 -32 84
-75 62 -62 73 -79 62 -88 -19 -17 -9 -23 16 -9 17 9 21 8 21 -5 0 -8 3 -15 8
-15 4 0 24 -15 44 -33 20 -17 78 -68 129 -112 51 -44 130 -114 175 -155 96
-87 145 -126 156 -123 4 2 8 -2 8 -7 0 -6 6 -10 14 -10 8 0 16 -4 18 -8 4 -10
105 -72 117 -72 5 0 34 -11 65 -25 32 -14 55 -21 52 -16 -4 5 -22 15 -41 21
-35 11 -39 30 -8 30 9 0 13 -3 9 -7 -9 -9 64 -44 77 -36 5 3 7 1 4 -4 -4 -6
11 -18 34 -27 23 -9 39 -19 36 -22 -3 -3 -23 4 -46 15 -22 12 -44 21 -48 20
-4 0 78 -43 182 -94 127 -62 194 -90 202 -83 7 6 14 5 19 -3 4 -8 3 -9 -4 -5
-7 4 -12 3 -12 -2 0 -6 7 -13 16 -16 10 -4 13 -2 8 6 -5 8 -1 9 12 4 17 -6 17
-5 4 7 -37 36 -452 306 -463 301 -7 -2 -23 7 -36 20 l-23 25 34 -4 c19 -1 44
-8 56 -14 11 -6 24 -11 29 -11 17 1 -63 39 -84 40 -11 0 -65 22 -120 49 -54
27 -121 58 -148 69 -28 11 -85 36 -128 56 -43 20 -82 36 -85 36 -4 0 -18 9
-32 20 l-25 19 25 -5 c20 -5 22 -3 10 5 -13 10 -13 12 0 21 8 5 20 10 25 10 6
0 3 -5 -5 -10 -13 -9 -13 -11 0 -20 11 -7 11 -10 2 -10 -7 0 -11 -4 -7 -10 3
-5 12 -7 20 -3 8 3 15 0 15 -6 0 -6 6 -11 13 -11 7 0 33 -10 58 -22 24 -12 52
-21 62 -20 9 0 15 -3 13 -7 -3 -5 5 -13 18 -19 39 -18 27 13 -13 33 -20 9 -44
21 -53 26 -10 5 -22 9 -28 9 -6 0 -16 5 -23 10 -7 6 -23 19 -37 30 -24 19 -23
19 25 -1 28 -12 178 -85 335 -162 157 -78 288 -143 293 -145 4 -2 4 4 0 14 -5
14 -3 16 13 11 18 -7 18 -6 1 7 -10 8 -26 12 -36 9 -15 -4 -58 15 -144 64 -10
6 12 33 26 33 6 0 3 -6 -7 -13 -17 -13 -15 -15 25 -32 24 -10 49 -19 54 -19 6
-1 20 -5 33 -10 17 -5 29 -3 41 8 19 17 43 4 35 -19 -3 -7 5 -15 18 -18 13 -4
25 -2 26 4 3 6 10 5 20 -3 11 -8 10 -5 -2 8 -13 13 -20 15 -23 6 -3 -6 -9 -9
-15 -6 -6 4 -6 9 2 14 9 6 3 13 -20 25 -31 16 -35 16 -45 1 -13 -17 -35 -22
-35 -7 0 5 9 11 19 14 15 4 18 11 14 27 -4 16 -3 21 6 16 6 -4 8 -12 5 -18 -5
-7 -2 -8 5 -3 8 4 23 -3 39 -17 15 -13 38 -31 52 -40 25 -15 39 -58 19 -58 -5
0 -9 5 -9 10 0 6 -5 10 -12 10 -8 0 -7 -5 3 -15 20 -20 55 -9 38 11 -21 26 2
14 77 -38 77 -54 129 -94 107 -83 -7 3 -18 3 -23 0 -16 -10 8 -35 26 -28 9 3
14 0 12 -8 -2 -11 8 -13 41 -12 42 3 43 2 25 -12 -18 -15 -18 -15 0 -8 13 4
17 3 12 -5 -9 -15 12 -26 27 -13 8 6 18 6 27 1 13 -9 13 -10 0 -10 -12 0 -12
-2 -1 -9 7 -5 9 -11 4 -14 -9 -6 -91 27 -240 94 -24 10 -46 19 -50 19 -14 -1
62 -38 143 -71 44 -17 128 -56 187 -86 59 -30 110 -53 113 -50 3 3 -9 13 -26
23 -16 10 -28 24 -26 31 3 7 0 15 -6 19 -6 4 -8 3 -5 -3 4 -6 0 -13 -8 -17 -8
-3 -17 0 -21 6 -4 6 -3 8 3 5 5 -3 10 1 10 9 0 9 -79 68 -188 139 -173 114
-269 184 -442 323 -37 30 -70 52 -74 48 -3 -3 -4 -8 -2 -9 2 -2 31 -23 63 -47
50 -36 57 -45 41 -50 -14 -5 -16 -9 -6 -15 8 -4 17 -2 22 6 6 11 11 11 21 1 6
-6 10 -12 8 -13 -3 0 -15 -2 -26 -4 -13 -3 -29 4 -39 15 -10 11 -14 20 -10 20
5 0 -2 11 -15 25 -12 13 -27 22 -33 18 -6 -3 -7 -1 -3 5 11 19 -9 14 -27 -6
-10 -10 -14 -22 -10 -27 5 -4 -7 0 -25 9 -19 10 -31 20 -28 23 3 3 12 0 21 -7
12 -10 18 -10 30 0 17 14 21 45 4 34 -8 -5 -8 -1 0 14 10 19 3 27 -73 86 -46
36 -86 66 -89 66 -3 0 -4 -8 -2 -19 2 -12 -2 -18 -13 -16 -26 2 -52 16 -52 27
0 7 5 6 13 -1 8 -6 17 -8 20 -4 4 3 7 0 7 -7 0 -7 3 -10 7 -6 16 16 9 37 -17
56 -31 22 -51 27 -32 8 7 -7 12 -16 12 -22 0 -5 -6 -1 -14 9 -8 11 -12 23 -10
27 6 10 -107 89 -196 136 -96 52 -209 94 -339 125 -112 27 -127 20 -18 -8 37
-10 73 -25 80 -33 10 -13 9 -14 -10 -4 -33 18 -38 14 -17 -10 19 -21 19 -21
-6 -14 -14 4 -49 9 -77 13 -47 5 -58 12 -54 35 0 3 -14 2 -31 -3 -17 -5 -32
-8 -33 -6 -1 1 -8 13 -15 26 -9 17 -15 20 -23 12 -15 -15 -30 -14 -21 2 4 6 4
9 -1 5 -4 -4 -15 -2 -24 4 -10 8 -8 3 4 -12z m110 -73 c10 -8 14 -16 9 -19 -5
-3 -17 3 -26 14 -21 21 -10 24 17 5z m230 -7 c3 -5 1 -10 -4 -10 -6 0 -11 5
-11 10 0 6 2 10 4 10 3 0 8 -4 11 -10z m-190 -49 c-6 -5 -25 10 -25 20 0 5 6
4 14 -3 8 -7 12 -15 11 -17z m605 -126 c11 -13 10 -14 -4 -9 -9 3 -16 10 -16
15 0 13 6 11 20 -6z m-456 -20 c3 -8 1 -15 -4 -15 -6 0 -10 7 -10 15 0 8 2 15
4 15 2 0 6 -7 10 -15z m34 -26 c-10 -7 -10 -9 3 -9 8 0 21 6 29 13 12 10 12 9
1 -6 -12 -15 -11 -20 5 -33 13 -11 8 -10 -15 3 -34 18 -54 58 -24 46 12 -5 12
-7 1 -14z m556 -71 c-5 -7 -2 -9 8 -5 10 3 15 0 14 -10 0 -9 5 -18 13 -21 9
-3 11 0 6 8 -6 9 -3 10 11 2 32 -17 77 -63 69 -70 -4 -4 -10 -2 -12 5 -2 7
-10 11 -16 9 -7 -1 -8 -1 -4 2 10 5 -22 42 -36 42 -5 0 -3 -8 4 -17 9 -11 1
-8 -21 7 -53 37 -62 47 -47 53 18 8 19 8 11 -5z m-137 -18 c14 -11 22 -20 18
-20 -4 0 -18 9 -32 20 -14 11 -22 20 -18 20 4 0 18 -9 32 -20z m83 -10 c8 -5
11 -10 5 -10 -5 0 -17 5 -25 10 -8 5 -10 10 -5 10 6 0 17 -5 25 -10z m10 -40
c0 -5 -2 -10 -4 -10 -3 0 -8 5 -11 10 -3 6 -1 10 4 10 6 0 11 -4 11 -10z m40
-20 c8 -5 12 -11 10 -14 -3 -2 -14 2 -24 10 -22 15 -10 19 14 4z m-40 -15 c14
-8 21 -14 15 -14 -5 0 -21 6 -35 14 -14 8 -20 14 -15 14 6 0 21 -6 35 -14z
m-295 -33 c-3 -3 -11 0 -18 7 -9 10 -8 11 6 5 10 -3 15 -9 12 -12z m361 -8
c18 -14 18 -14 -6 -3 -31 14 -36 19 -24 19 6 0 19 -7 30 -16z m-339 -9 c0 -8
-4 -12 -9 -9 -5 3 -6 10 -3 15 9 13 12 11 12 -6z m90 -26 c19 -12 32 -24 28
-27 -3 -3 -19 5 -36 17 -18 14 -35 19 -40 14 -10 -10 80 -72 90 -63 3 3 5 13
5 22 -1 14 3 15 24 7 53 -20 132 -74 127 -87 -3 -7 -1 -11 4 -8 14 9 94 -40
97 -58 1 -9 -2 -16 -7 -16 -5 0 -9 5 -9 11 0 5 -4 8 -9 5 -5 -4 -11 -2 -13 4
-2 6 -9 6 -17 0 -12 -7 -9 -10 12 -15 18 -5 27 -14 27 -27 0 -15 -4 -18 -22
-12 -41 12 -138 76 -131 87 3 5 1 7 -4 4 -6 -4 -21 2 -34 12 -13 10 -37 25
-54 34 -32 17 -115 91 -115 102 0 3 4 4 9 0 5 -3 12 -1 16 5 9 14 13 13 52
-11z m358 -27 c-4 -5 -75 37 -75 44 0 3 18 -6 39 -18 22 -12 38 -24 36 -26z
m85 -7 c14 -16 10 -18 -14 -9 -9 3 -16 10 -16 15 0 14 16 11 30 -6z m-17 -29
c4 -10 0 -12 -14 -9 -10 3 -16 9 -13 14 8 13 21 11 27 -5z m57 -16 c0 -5 -7
-10 -16 -10 -8 0 -12 5 -9 10 3 6 10 10 16 10 5 0 9 -4 9 -10z m-84 -134 c40
-26 41 -30 9 -44 -33 -15 -38 -15 -32 2 4 9 0 12 -13 9 -12 -3 -23 3 -31 15
-8 12 -19 18 -28 14 -13 -5 -14 -3 -4 10 7 8 10 18 6 22 -15 14 63 -9 93 -28z
m77 -56 c14 -11 28 -20 32 -20 4 0 37 -22 74 -48 36 -27 77 -54 89 -61 13 -7
22 -15 19 -17 -5 -5 -79 36 -88 49 -3 5 -8 7 -10 6 -2 -2 -28 9 -57 23 -29 14
-47 29 -40 31 7 3 2 6 -12 6 -36 1 -77 31 -59 42 20 12 23 11 52 -11z m442
-50 c3 -6 -1 -7 -9 -4 -18 7 -21 14 -7 14 6 0 13 -4 16 -10z m-370 -42 c36
-17 63 -33 61 -35 -2 -2 -35 12 -72 31 -86 44 -77 47 11 4z m425 1 c0 -5 -4
-9 -8 -9 -5 0 -9 7 -9 15 0 8 4 12 9 9 4 -3 8 -9 8 -15z m87 -61 c-11 -6 -23
-5 -34 1 -12 7 -14 10 -4 11 11 0 11 3 0 17 -12 14 -10 14 20 -2 29 -15 32
-19 18 -27z m-342 -8 c3 -5 -1 -10 -10 -10 -9 0 -13 5 -10 10 3 6 8 10 10 10
2 0 7 -4 10 -10z m32 -26 c-3 -3 -12 -4 -19 -1 -8 3 -5 6 6 6 11 1 17 -2 13
-5z"/>
<path d="M5138 2963 c17 -7 15 -23 -3 -23 -23 0 -18 -14 11 -27 21 -10 29 -10
40 2 12 12 10 17 -15 34 -16 12 -33 21 -38 20 -4 0 -2 -3 5 -6z m37 -33 c3 -5
2 -10 -4 -10 -5 0 -13 5 -16 10 -3 6 -2 10 4 10 5 0 13 -4 16 -10z"/>
<path d="M5200 2902 c0 -5 22 -21 50 -36 36 -20 54 -25 67 -18 14 9 14 10 -5
16 -12 4 -26 5 -30 2 -5 -3 -25 6 -45 20 -20 14 -37 21 -37 16z"/>
<path d="M5527 2729 c7 -7 15 -10 18 -7 3 3 -2 9 -12 12 -14 6 -15 5 -6 -5z"/>
<path d="M5600 2690 c8 -5 20 -10 25 -10 6 0 3 5 -5 10 -8 5 -19 10 -25 10 -5
0 -3 -5 5 -10z"/>
<path d="M5065 3530 l-60 -7 70 0 c39 0 102 3 140 7 l70 7 -80 0 c-44 0 -107
-3 -140 -7z"/>
<path d="M4638 3523 c7 -3 16 -2 19 1 4 3 -2 6 -13 5 -11 0 -14 -3 -6 -6z"/>
<path d="M4888 3513 c18 -2 45 -2 60 0 15 2 0 4 -33 4 -33 0 -45 -2 -27 -4z"/>
<path d="M4520 3403 c0 -6 8 -17 18 -24 16 -13 16 -13 2 6 -8 11 -16 22 -17
24 -2 2 -3 0 -3 -6z"/>
<path d="M4575 3349 c11 -13 21 -26 22 -28 2 -2 3 2 3 10 0 8 -10 20 -22 28
l-23 14 20 -24z"/>
<path d="M3682 3150 c-17 -52 -30 -95 -28 -97 6 -6 67 169 63 180 -2 6 -17
-31 -35 -83z"/>
<path d="M3552 3118 c-17 -17 -15 -35 4 -42 9 -4 13 -2 8 5 -4 6 0 15 7 20 11
7 11 9 1 9 -7 0 -10 5 -7 10 8 14 2 13 -13 -2z"/>
<path d="M4820 3126 c0 -2 8 -10 18 -17 15 -13 16 -12 3 4 -13 16 -21 21 -21
13z"/>
<path d="M3535 3050 c-3 -5 -2 -10 4 -10 5 0 13 5 16 10 3 6 2 10 -4 10 -5 0
-13 -4 -16 -10z"/>
<path d="M3564 3039 c-3 -6 -1 -16 6 -22 10 -9 12 -8 7 5 -3 9 -1 19 6 22 9 3
9 5 0 5 -6 1 -15 -4 -19 -10z"/>
<path d="M5150 3033 c5 -2 8 -9 4 -14 -3 -5 0 -9 6 -9 15 0 7 23 -8 26 -7 1
-8 0 -2 -3z"/>
<path d="M5181 3005 c9 -8 79 -35 79 -30 0 2 -16 12 -36 20 -37 15 -51 19 -43
10z"/>
<path d="M5280 2963 c8 -3 24 -10 35 -15 20 -9 20 -9 1 6 -11 9 -27 16 -35 15
-14 0 -14 -1 -1 -6z"/>
<path d="M5392 2854 c10 -10 20 -15 24 -12 3 4 -5 12 -18 18 -22 12 -22 12 -6
-6z"/>
<path d="M5537 2829 c7 -7 15 -10 18 -7 3 3 -2 9 -12 12 -14 6 -15 5 -6 -5z"/>
<path d="M5744 2808 c-4 -7 -3 -8 4 -4 7 4 12 3 12 -2 0 -5 27 -22 59 -39 33
-17 57 -34 54 -37 -4 -3 0 -6 9 -6 8 0 18 3 21 7 10 9 -31 35 -43 28 -6 -4 -9
-2 -8 3 2 6 -1 11 -7 13 -5 1 -29 13 -52 26 -30 16 -44 20 -49 11z"/>
<path d="M5730 2746 c0 -2 7 -6 15 -10 8 -3 15 -1 15 4 0 6 -7 10 -15 10 -8 0
-15 -2 -15 -4z"/>
<path d="M3257 2579 c-4 -16 -3 -18 9 -8 7 6 11 15 8 20 -8 13 -11 11 -17 -12z"/>
<path d="M3223 2564 c4 -6 -2 -19 -13 -29 -11 -10 -20 -23 -20 -28 0 -6 8 -3
18 6 10 10 21 15 24 12 2 -3 4 4 3 15 -1 11 -5 23 -10 27 -4 5 -5 3 -2 -3z"/>
<path d="M3209 2493 c-13 -16 -12 -17 4 -4 9 7 17 15 17 17 0 8 -8 3 -21 -13z"/>
<path d="M5100 2135 c0 -5 5 -17 10 -25 5 -8 10 -10 10 -5 0 6 -5 17 -10 25
-5 8 -10 11 -10 5z"/>
<path d="M5137 2055 c9 -19 18 -33 21 -31 4 5 -26 66 -33 66 -3 0 3 -16 12
-35z"/>
<path d="M5160 2004 c0 -6 7 -19 16 -30 14 -18 14 -18 3 6 -14 31 -19 36 -19
24z"/>
<path d="M5134 1976 c-3 -8 -4 -23 -1 -33 3 -11 5 -7 6 11 l1 28 21 -23 20
-24 -17 28 c-19 31 -22 33 -30 13z"/>
<path d="M5153 1914 c0 -17 2 -22 7 -13 5 6 6 18 3 26 -8 19 -10 16 -10 -13z"/>
<path d="M5200 1927 c0 -14 31 -69 36 -64 3 3 -4 20 -15 38 -12 19 -21 30 -21
26z"/>
<path d="M6175 1820 c11 -17 135 -106 135 -97 0 3 -32 28 -71 56 -39 29 -68
47 -64 41z"/>
<path d="M5266 1797 c3 -10 9 -15 12 -12 3 3 0 11 -7 18 -10 9 -11 8 -5 -6z"/>
<path d="M5321 1504 c19 -22 36 -39 39 -37 2 2 -13 20 -35 41 l-39 37 35 -41z"/>
<path d="M5370 1446 c0 -2 8 -10 18 -17 15 -13 16 -12 3 4 -13 16 -21 21 -21
13z"/>
<path d="M5430 1375 c13 -14 26 -25 28 -25 3 0 -5 11 -18 25 -13 14 -26 25
-28 25 -3 0 5 -11 18 -25z"/>
<path d="M5514 1266 c28 -39 64 -90 79 -113 15 -24 30 -43 33 -43 7 0 -30 62
-64 108 -14 18 -22 35 -19 39 6 6 -20 63 -29 63 -2 0 0 -9 6 -21 7 -11 9 -23
6 -26 -3 -3 -13 10 -22 29 -9 19 -22 35 -29 35 -7 0 11 -32 39 -71z"/>
</g>
</svg>
